<svg version="1.1" id="Layer_1" xmlns="http://www.w3.org/2000/svg" xmlns:xlink="http://www.w3.org/1999/xlink" x="0px" y="0px" width="100%" viewBox="0 0 600 600" enable-background="new 0 0 600 600" xml:space="preserve">

<path fill="#000000" opacity="1.000000" stroke="none" d="
M310.000000,1.000003 
	C406.926910,1.000000 503.853851,1.000000 601.000000,1.000000 
	C601.000000,97.354118 601.000000,193.708405 600.644104,290.919037 
	C599.869202,291.159943 599.127686,290.567688 599.081482,289.925446 
	C598.653503,283.975464 598.359863,278.016022 597.999878,272.060944 
	C596.868896,253.346466 593.069092,235.093384 588.217957,217.050781 
	C581.670288,192.698471 571.390930,169.898346 558.447021,148.334732 
	C529.801331,100.613167 490.777496,63.751022 441.673920,37.536514 
	C416.302582,23.991753 389.600494,14.016593 361.279694,9.054862 
	C345.166412,6.231851 328.772736,5.016883 312.519928,2.962424 
	C311.611755,2.847625 310.836884,1.678435 310.000000,1.000003 
z" data-index="1" style="opacity: 1; visibility: hidden;"></path>
<path fill="#F7F7F7" opacity="1.000000" stroke="none" d="
M309.539368,1.000003 
	C310.836884,1.678435 311.611755,2.847625 312.519928,2.962424 
	C328.772736,5.016883 345.166412,6.231851 361.279694,9.054862 
	C389.600494,14.016593 416.302582,23.991753 441.673920,37.536514 
	C490.777496,63.751022 529.801331,100.613167 558.447021,148.334732 
	C571.390930,169.898346 581.670288,192.698471 588.217957,217.050781 
	C593.069092,235.093384 596.868896,253.346466 597.999878,272.060944 
	C598.359863,278.016022 598.653503,283.975464 599.081482,289.925446 
	C599.127686,290.567688 599.869202,291.159943 600.644104,291.387695 
	C601.000000,298.354248 601.000000,305.708496 601.000000,313.531372 
	C600.338318,314.679199 599.172119,315.303284 599.091064,316.045868 
	C597.978027,326.241608 597.945923,336.653046 595.812378,346.618408 
	C591.883667,364.968079 587.721252,383.378662 581.892578,401.186615 
	C571.103149,434.150696 553.047607,463.296631 530.534485,489.499481 
	C498.948761,526.261902 461.758881,555.684875 416.911499,575.140808 
	C392.473511,585.742554 367.182312,593.317139 340.944336,596.364197 
	C321.407440,598.633057 301.451080,598.414795 281.734924,597.741394 
	C254.865387,596.823730 228.569046,591.568115 203.273315,582.299744 
	C172.004761,570.842834 143.155197,554.881104 116.975914,534.213562 
	C85.746513,509.559021 60.167171,479.836304 40.450695,445.448334 
	C23.504360,415.891815 11.719510,384.096710 6.380494,350.280334 
	C2.743532,327.244537 1.712677,303.914642 3.304204,280.681519 
	C6.965313,227.236664 23.076097,177.767899 53.205097,133.242767 
	C71.953552,105.535988 94.593872,81.430397 121.516190,61.393181 
	C153.637833,37.486309 189.028488,20.975809 228.090652,11.796759 
	C250.332825,6.570167 272.694153,3.596335 295.457703,2.978212 
	C296.577179,2.947814 297.675842,2.150118 298.392090,1.354856 
	C301.692902,1.000000 305.385834,1.000000 309.539368,1.000003 
M154.831177,549.702393 
	C186.398300,568.809204 220.565079,581.114990 256.888580,586.769348 
	C278.718170,590.167419 300.829712,591.029175 323.032776,589.328491 
	C346.313293,587.545227 369.049805,583.410339 391.067017,575.783691 
	C430.326813,562.184387 465.162506,541.177307 495.848267,513.061584 
	C522.756287,488.407257 544.679199,460.060760 561.069458,427.515320 
	C584.355896,381.276520 593.996765,332.308289 590.211975,280.596497 
	C588.509399,257.334015 584.948181,234.424973 577.678955,212.325699 
	C552.340332,135.293488 503.299377,78.354095 430.795319,42.034252 
	C382.467010,17.824909 331.143860,8.538558 277.220032,12.757268 
	C257.953979,14.264541 238.942963,17.063076 220.424225,22.276854 
	C164.174225,38.113533 116.590897,68.168068 79.407036,113.182159 
	C29.732403,173.317352 6.836159,242.680542 11.826734,320.916077 
	C13.840410,352.483826 20.839634,382.754974 33.628551,411.714355 
	C59.453602,470.192963 99.414719,516.237488 154.831177,549.702393 
z" data-index="2" style="opacity: 1;"></path>
<path fill="#272626" opacity="1.000000" stroke="none" d="
M154.525864,549.497070 
	C99.414719,516.237488 59.453602,470.192963 33.628551,411.714355 
	C20.839634,382.754974 13.840410,352.483826 11.826734,320.916077 
	C6.836159,242.680542 29.732403,173.317352 79.407036,113.182159 
	C116.590897,68.168068 164.174225,38.113533 220.424225,22.276854 
	C238.942963,17.063076 257.953979,14.264541 277.220032,12.757268 
	C331.143860,8.538558 382.467010,17.824909 430.795319,42.034252 
	C503.299377,78.354095 552.340332,135.293488 577.678955,212.325699 
	C584.948181,234.424973 588.509399,257.334015 590.211975,280.596497 
	C593.996765,332.308289 584.355896,381.276520 561.069458,427.515320 
	C544.679199,460.060760 522.756287,488.407257 495.848267,513.061584 
	C465.162506,541.177307 430.326813,562.184387 391.067017,575.783691 
	C369.049805,583.410339 346.313293,587.545227 323.032776,589.328491 
	C300.829712,591.029175 278.718170,590.167419 256.888580,586.769348 
	C220.565079,581.114990 186.398300,568.809204 154.525864,549.497070 
M247.388443,571.143982 
	C262.022980,573.051208 276.609436,575.893921 291.303223,576.649353 
	C314.094727,577.821045 336.813782,575.730103 359.316254,571.674072 
	C380.922394,567.779602 401.280914,560.133545 420.776489,550.370239 
	C469.708099,525.865479 508.352692,489.978149 538.019348,444.021240 
	C563.177124,405.049103 575.887573,362.243500 578.868835,316.343262 
	C580.176147,296.217133 578.343079,276.231873 575.176453,256.240784 
	C569.636841,221.268692 557.890381,188.604630 539.754883,158.426910 
	C516.544556,119.804710 485.000977,89.126526 446.752808,65.385956 
	C412.319000,44.012966 374.815002,31.629282 334.597809,26.786348 
	C309.121368,23.718489 283.801147,24.377300 258.540558,28.073666 
	C229.122437,32.378399 200.730499,40.442387 174.037506,53.718758 
	C131.174301,75.037773 96.590263,106.188553 70.280251,145.824493 
	C38.956783,193.013199 22.170067,245.047058 22.783720,302.276825 
	C23.035032,325.714325 25.949541,348.685883 32.179771,371.178864 
	C41.003574,403.035400 55.259365,432.382965 74.514854,459.289001 
	C99.945137,494.823212 131.999222,522.817078 170.375885,543.613464 
	C194.368805,556.615234 219.838104,565.553040 247.388443,571.143982 
z" data-index="3" style="opacity: 1;"></path>
<path fill="#B20000" opacity="1.000000" stroke="none" d="
M246.969589,571.079163 
	C219.838104,565.553040 194.368805,556.615234 170.375885,543.613464 
	C131.999222,522.817078 99.945137,494.823212 74.514854,459.289001 
	C55.259365,432.382965 41.003574,403.035400 32.179771,371.178864 
	C25.949541,348.685883 23.035032,325.714325 22.783720,302.276825 
	C22.170067,245.047058 38.956783,193.013199 70.280251,145.824493 
	C96.590263,106.188553 131.174301,75.037773 174.037506,53.718758 
	C200.730499,40.442387 229.122437,32.378399 258.540558,28.073666 
	C283.801147,24.377300 309.121368,23.718489 334.597809,26.786348 
	C374.815002,31.629282 412.319000,44.012966 446.752808,65.385956 
	C485.000977,89.126526 516.544556,119.804710 539.754883,158.426910 
	C557.890381,188.604630 569.636841,221.268692 575.176453,256.240784 
	C578.343079,276.231873 580.176147,296.217133 578.868835,316.343262 
	C575.887573,362.243500 563.177124,405.049103 538.019348,444.021240 
	C508.352692,489.978149 469.708099,525.865479 420.776489,550.370239 
	C401.280914,560.133545 380.922394,567.779602 359.316254,571.674072 
	C336.813782,575.730103 314.094727,577.821045 291.303223,576.649353 
	C276.609436,575.893921 262.022980,573.051208 246.969589,571.079163 
M317.541168,561.446960 
	C340.301758,559.771973 362.569550,555.803162 384.291199,548.511902 
	C417.408600,537.395508 446.749451,519.871338 473.201019,497.320435 
	C493.995697,479.592224 511.342377,458.864136 526.143982,435.907013 
	C551.852539,396.033234 562.133362,351.796234 564.261414,305.025543 
	C565.734619,272.646698 560.618896,241.610886 549.055420,211.300125 
	C532.222046,167.175339 505.461243,130.283401 469.432953,100.192757 
	C429.343353,66.710182 382.835083,47.214809 331.079010,41.256496 
	C299.187927,37.585098 267.121765,38.948311 235.996750,47.391609 
	C186.762482,60.747395 143.232498,84.469559 108.196632,122.237968 
	C83.739182,148.602951 64.536240,178.052612 53.346706,212.728912 
	C41.407166,249.729416 35.248714,287.132324 38.861668,326.043671 
	C41.533279,354.816833 49.011612,382.368805 61.314407,408.234711 
	C77.107979,441.439789 98.630394,470.805939 127.028603,494.615265 
	C151.065918,514.768372 176.279694,533.034668 206.449188,543.318787 
	C226.263626,550.072998 246.062759,556.707214 267.002594,559.080261 
	C274.722565,559.955139 282.426697,560.970093 289.482391,562.014221 
	C289.072845,562.311768 288.663300,562.609253 288.253754,562.906799 
	C288.417938,562.929626 288.582062,562.972107 288.746277,562.972351 
	C298.193481,562.983459 307.640656,562.993896 317.087860,562.984436 
	C317.344482,562.984192 317.600952,562.765442 317.857483,562.648560 
	C317.679596,562.446228 317.521484,562.219788 317.316132,562.050903 
	C317.198975,561.954468 317.004700,561.951782 317.541168,561.446960 
M565.035034,305.270355 
	C565.035034,307.110382 565.035034,308.950439 565.035034,310.790466 
	C565.277771,310.780426 565.520569,310.770386 565.763306,310.760345 
	C565.763306,298.207977 565.763306,285.655609 565.763306,273.103241 
	C565.520569,273.101044 565.277832,273.098846 565.035095,273.096649 
	C565.035095,283.507660 565.035095,293.918671 565.035034,305.270355 
z" data-index="4" style="opacity: 1;"></path>
<path fill="#252525" opacity="1.000000" stroke="none" d="
M290.138031,561.921204 
	C282.426697,560.970093 274.722565,559.955139 267.002594,559.080261 
	C246.062759,556.707214 226.263626,550.072998 206.449188,543.318787 
	C176.279694,533.034668 151.065918,514.768372 127.028603,494.615265 
	C98.630394,470.805939 77.107979,441.439789 61.314407,408.234711 
	C49.011612,382.368805 41.533279,354.816833 38.861668,326.043671 
	C35.248714,287.132324 41.407166,249.729416 53.346706,212.728912 
	C64.536240,178.052612 83.739182,148.602951 108.196632,122.237968 
	C143.232498,84.469559 186.762482,60.747395 235.996750,47.391609 
	C267.121765,38.948311 299.187927,37.585098 331.079010,41.256496 
	C382.835083,47.214809 429.343353,66.710182 469.432953,100.192757 
	C505.461243,130.283401 532.222046,167.175339 549.055420,211.300125 
	C560.618896,241.610886 565.734619,272.646698 564.261414,305.025543 
	C562.133362,351.796234 551.852539,396.033234 526.143982,435.907013 
	C511.342377,458.864136 493.995697,479.592224 473.201019,497.320435 
	C446.749451,519.871338 417.408600,537.395508 384.291199,548.511902 
	C362.569550,555.803162 340.301758,559.771973 316.738403,561.664429 
	C307.336426,561.894958 298.737213,561.908081 290.138031,561.921204 
M504.656036,267.173096 
	C504.656036,267.173096 504.878632,267.160553 504.878632,267.160553 
	C504.878632,267.160553 504.642822,267.139954 505.018280,267.846100 
	C506.164795,273.087921 507.311310,278.329773 507.883820,284.232666 
	C507.710663,284.467529 507.537476,284.702393 506.839966,284.493469 
	C503.835052,282.309174 500.830109,280.124847 497.802612,277.924164 
	C496.797760,279.842987 496.131622,281.115021 495.342468,282.621918 
	C492.062683,281.522522 489.050293,280.512726 485.063599,279.176361 
	C486.734375,283.858276 488.114288,287.725128 489.466461,291.514191 
	C488.332886,291.831085 487.543457,292.051788 485.954590,292.495941 
	C492.300049,297.967621 498.008331,302.889832 503.831909,307.911469 
	C502.227722,308.981903 501.243134,309.638885 500.258575,310.295868 
	C500.397278,310.722015 500.536011,311.148193 500.674713,311.574341 
	C505.958221,311.328674 511.241730,311.082977 516.948608,310.817627 
	C516.948608,315.422302 516.948608,319.476868 516.948608,323.531403 
	C517.506775,323.613617 518.065002,323.695801 518.623169,323.778015 
	C519.349487,319.972961 520.075806,316.167938 520.914368,311.774994 
	C525.522339,311.385773 530.627869,310.954529 535.733337,310.523285 
	C535.890930,310.214600 536.048523,309.905945 536.206055,309.597290 
	C535.178101,309.088867 534.150146,308.580475 531.514954,307.277130 
	C537.969971,301.757202 543.445496,297.074890 549.650757,291.768494 
	C547.094177,291.208344 546.060913,290.981934 545.077454,290.766449 
	C546.526367,287.080200 547.902283,283.579681 549.476868,279.573761 
	C544.556702,280.616577 540.419556,285.474945 537.292480,278.359680 
	C534.119690,280.413177 531.302185,282.236694 528.200500,284.244141 
	C529.301514,278.188049 530.300598,272.692810 531.299683,267.197571 
	C530.931702,267.053375 530.563721,266.909180 530.195679,266.764984 
	C528.899658,267.872192 527.603638,268.979370 526.293762,270.098328 
	C523.558472,266.187988 520.952454,262.462555 517.717773,257.838318 
	C514.912415,262.715424 512.655212,266.639587 510.888916,269.710358 
	C508.795563,268.891449 506.752625,268.092255 504.656036,267.173096 
M219.165558,119.995003 
	C210.274094,115.911522 200.904358,115.880150 191.717270,117.928215 
	C175.549683,121.532455 164.257217,132.308838 154.981384,145.268784 
	C147.984146,155.045135 143.659973,166.240677 141.132568,177.904388 
	C138.497986,190.062668 137.598526,202.525894 140.075958,214.838272 
	C142.316559,225.973618 144.240372,237.377060 148.314117,247.882797 
	C152.549637,258.805756 159.194794,268.794403 164.606110,278.856628 
	C151.468338,276.004700 141.133698,267.156067 131.123978,257.400757 
	C132.581879,269.493561 137.058334,280.219604 145.131714,290.504272 
	C143.362488,289.893433 142.644089,289.599365 141.900101,289.401520 
	C141.163330,289.205658 140.400711,289.106903 139.075668,288.857544 
	C147.754974,302.629211 147.013275,315.257385 137.092728,327.554382 
	C131.321991,334.707489 125.712257,342.072296 120.838776,349.848633 
	C113.097923,362.200409 109.585770,376.166321 108.150475,390.502380 
	C107.342369,398.573914 108.004860,406.792664 108.004860,414.861847 
	C112.620934,409.442078 116.510078,403.564453 121.671135,399.186127 
	C126.801300,394.834045 133.210052,391.989166 140.127151,387.842468 
	C128.230896,418.841248 126.949005,448.006989 141.644043,477.975250 
	C148.502701,461.978760 159.957428,452.107483 174.708038,444.652374 
	C172.014771,455.286530 168.144333,464.971893 169.152328,476.259033 
	C179.840256,466.155426 191.264252,458.948914 204.908691,455.274536 
	C205.105713,478.791077 208.304260,501.564545 217.787720,523.940735 
	C225.796448,507.796356 233.716110,492.438446 246.690674,480.399506 
	C248.443512,499.288208 253.509567,516.598633 258.513000,520.697388 
	C260.841064,510.040375 263.914856,499.774414 273.288391,491.368805 
	C282.369141,506.496735 291.271362,521.327271 299.542267,535.106079 
	C306.994934,521.174316 314.813782,506.557983 322.632629,491.941650 
	C323.342529,491.922546 324.052460,491.903473 324.762360,491.884369 
	C329.333740,500.862610 333.905121,509.840820 338.608185,519.077698 
	C344.946198,506.833923 347.907623,493.585815 348.327484,479.397675 
	C362.693390,491.218079 369.564087,507.208313 376.848541,524.293579 
	C378.229767,521.194641 379.252625,519.237244 379.996216,517.178894 
	C387.226807,497.163025 391.892365,476.669006 390.945953,454.895050 
	C405.228394,457.302643 415.767639,465.739502 426.507935,474.324707 
	C427.273010,468.006683 425.296448,462.193115 417.309052,446.673492 
	C434.872101,449.729919 446.210541,460.554993 455.702667,474.031128 
	C465.377533,460.248688 473.297760,427.966400 459.979492,392.029358 
	C475.752136,394.742645 483.712158,406.115967 490.553375,418.987427 
	C492.849640,384.067017 485.599609,352.655731 459.308929,326.500488 
	C465.303436,327.855988 469.998383,328.917603 474.693329,329.979218 
	C475.091492,329.637360 475.489685,329.295471 475.887848,328.953613 
	C472.671173,324.189972 469.593384,319.324615 466.199493,314.690796 
	C462.659393,309.857422 458.814667,305.247162 454.931427,300.321594 
	C456.589844,297.691986 459.634033,292.865143 463.184631,287.235321 
	C459.559418,288.123627 457.505035,288.627014 454.946350,289.253998 
	C466.486267,265.943146 466.885132,264.706482 465.336426,257.341827 
	C456.217346,266.218689 446.549194,274.149506 432.525909,277.535950 
	C436.786407,271.130707 440.814697,266.149963 443.668488,260.568695 
	C450.387207,247.428680 454.179535,233.441727 456.389008,218.727127 
	C458.561340,204.260345 458.543304,190.118423 455.508179,175.991119 
	C451.471893,157.203903 442.654114,141.129639 427.424347,128.867798 
	C418.644348,121.798813 409.390656,116.141273 397.578003,117.042313 
	C391.149078,117.532692 384.753418,118.458778 378.597900,119.159309 
	C385.938385,110.603447 394.345551,102.872818 407.765442,102.939095 
	C398.700684,99.272629 389.839935,95.839684 380.659088,94.207970 
	C371.284668,92.541840 361.909210,94.584381 352.123718,99.777351 
	C359.962555,86.168449 370.791290,80.436951 385.452789,79.919357 
	C382.579803,78.315414 380.619415,77.240471 378.677155,76.133659 
	C357.714386,64.187614 335.451050,59.109215 311.725586,65.145065 
	C302.849457,67.403183 295.143127,69.904732 285.754089,65.371185 
	C276.862274,61.077724 266.448059,62.749001 256.509827,63.813347 
	C240.510315,65.526833 225.798126,70.360748 212.601013,79.631569 
	C231.141235,81.306229 239.219864,87.407234 244.706696,99.175972 
	C225.190872,89.634491 207.038864,93.585464 187.963242,103.835121 
	C202.387863,103.912651 212.424255,109.932846 220.327362,119.709091 
	C220.198151,119.829529 220.068939,119.949966 219.165558,119.995003 
M68.805244,308.391724 
	C69.362869,308.952972 69.900230,309.974274 70.481445,309.999878 
	C73.948143,310.152588 77.424957,310.075439 82.192825,310.075439 
	C80.770370,312.426514 79.990921,314.046021 78.900391,315.418365 
	C77.928192,316.641785 76.611961,317.591858 75.447548,318.662567 
	C82.539642,317.636993 80.360199,325.887177 84.701431,326.416931 
	C87.727196,324.258972 86.229195,317.360199 93.085480,318.478363 
	C91.690277,316.959229 90.079247,316.303497 89.003586,315.148987 
	C87.903305,313.968109 87.327881,312.298218 85.957321,309.820160 
	C91.481384,309.820160 95.771088,309.820160 100.060799,309.820160 
	C100.168022,309.351929 100.275253,308.883698 100.382484,308.415436 
	C98.052650,307.292328 95.722809,306.169189 92.095474,304.420593 
	C95.445541,301.875214 98.106354,299.280426 101.288940,297.832489 
	C102.099388,297.463745 104.565865,300.734955 106.652748,302.691132 
	C107.097046,302.479889 108.392166,302.071838 109.447525,301.325012 
	C113.239258,298.641785 113.826180,292.828949 110.860260,288.338379 
	C107.909676,283.871033 103.319511,282.021851 99.933243,284.910278 
	C96.690399,287.676331 93.987236,291.379425 91.944870,295.156250 
	C90.182259,298.415741 89.682289,302.357971 88.624123,305.998383 
	C88.146172,305.925903 87.668221,305.853424 87.190277,305.780975 
	C87.256996,304.304169 87.077324,302.764893 87.433105,301.361359 
	C88.973167,295.285889 90.807709,289.283386 92.278557,283.192413 
	C94.789383,272.794647 90.783073,261.383728 83.091347,256.803070 
	C75.819519,264.951355 73.056488,274.042450 76.746529,284.748566 
	C77.930641,288.184052 78.567101,291.808319 79.454117,295.346222 
	C76.706245,292.705811 74.744308,289.911713 72.523125,287.341644 
	C69.605049,283.965240 66.064941,282.096771 61.582829,284.309875 
	C56.874268,286.634796 55.794453,290.845428 56.161968,295.619141 
	C56.511467,300.158722 58.762596,303.207245 62.185501,304.165588 
	C64.310020,301.574310 65.851357,297.998322 67.604271,297.891388 
	C71.931976,297.627472 73.726974,301.493134 75.170174,304.964325 
	C73.046341,306.003632 71.193985,306.910065 68.805244,308.391724 
z" data-index="5" style="opacity: 1;"></path>
<path fill="#C60000" opacity="1.000000" stroke="none" d="
M565.035034,304.800018 
	C565.035095,293.918671 565.035095,283.507660 565.035095,273.096649 
	C565.277832,273.098846 565.520569,273.101044 565.763306,273.103241 
	C565.763306,285.655609 565.763306,298.207977 565.763306,310.760345 
	C565.520569,310.770386 565.277771,310.780426 565.035034,310.790466 
	C565.035034,308.950439 565.035034,307.110382 565.035034,304.800018 
z" data-index="6"></path>
<path fill="#CF0000" opacity="1.000000" stroke="none" d="
M289.810211,561.967712 
	C298.737213,561.908081 307.336426,561.894958 316.390381,561.894348 
	C317.004700,561.951782 317.198975,561.954468 317.316132,562.050903 
	C317.521484,562.219788 317.679596,562.446228 317.857483,562.648560 
	C317.600952,562.765442 317.344482,562.984192 317.087860,562.984436 
	C307.640656,562.993896 298.193481,562.983459 288.746277,562.972351 
	C288.582062,562.972107 288.417938,562.929626 288.253754,562.906799 
	C288.663300,562.609253 289.072845,562.311768 289.810211,561.967712 
z" data-index="7"></path>
<path fill="#F5F5F5" opacity="1.000000" stroke="none" d="
M220.743896,119.381500 
	C212.424255,109.932846 202.387863,103.912651 187.963242,103.835121 
	C207.038864,93.585464 225.190872,89.634491 244.706696,99.175972 
	C239.219864,87.407234 231.141235,81.306229 212.601135,79.631905 
	C225.798126,70.360748 240.510315,65.526833 256.509827,63.813347 
	C266.448059,62.749001 276.862274,61.077724 285.754089,65.371185 
	C295.143127,69.904732 302.849457,67.403183 311.725586,65.145065 
	C335.451050,59.109215 357.714386,64.187614 378.677155,76.133659 
	C380.619415,77.240471 382.579803,78.315414 385.452789,79.919357 
	C370.791290,80.436951 359.962555,86.168449 352.123718,99.777351 
	C361.909210,94.584381 371.284668,92.541840 380.659088,94.207970 
	C389.839935,95.839684 398.700684,99.272629 407.765442,102.939095 
	C394.345551,102.872818 385.938385,110.603447 378.597900,119.159309 
	C384.753418,118.458778 391.149078,117.532692 397.578003,117.042313 
	C409.390656,116.141273 418.644348,121.798813 427.424347,128.867798 
	C442.654114,141.129639 451.471893,157.203903 455.508179,175.991119 
	C458.543304,190.118423 458.561340,204.260345 456.389008,218.727127 
	C454.179535,233.441727 450.387207,247.428680 443.668488,260.568695 
	C440.814697,266.149963 436.786407,271.130707 432.525909,277.535950 
	C446.549194,274.149506 456.217346,266.218689 465.336426,257.341827 
	C466.885132,264.706482 466.486267,265.943146 454.946350,289.253998 
	C457.505035,288.627014 459.559418,288.123627 463.184631,287.235321 
	C459.634033,292.865143 456.589844,297.691986 454.931427,300.321594 
	C458.814667,305.247162 462.659393,309.857422 466.199493,314.690796 
	C469.593384,319.324615 472.671173,324.189972 475.887848,328.953613 
	C475.489685,329.295471 475.091492,329.637360 474.693329,329.979218 
	C469.998383,328.917603 465.303436,327.855988 459.308929,326.500488 
	C485.599609,352.655731 492.849640,384.067017 490.553375,418.987427 
	C483.712158,406.115967 475.752136,394.742645 459.979492,392.029358 
	C473.297760,427.966400 465.377533,460.248688 455.702667,474.031128 
	C446.210541,460.554993 434.872101,449.729919 417.309052,446.673492 
	C425.296448,462.193115 427.273010,468.006683 426.507935,474.324707 
	C415.767639,465.739502 405.228394,457.302643 390.945953,454.895050 
	C391.892365,476.669006 387.226807,497.163025 379.996216,517.178894 
	C379.252625,519.237244 378.229767,521.194641 376.848541,524.293579 
	C369.564087,507.208313 362.693390,491.218079 348.327484,479.397675 
	C347.907623,493.585815 344.946198,506.833923 338.608185,519.077698 
	C333.905121,509.840820 329.333740,500.862610 324.762360,491.884369 
	C324.052460,491.903473 323.342529,491.922546 322.632629,491.941650 
	C314.813782,506.557983 306.994934,521.174316 299.542267,535.106079 
	C291.271362,521.327271 282.369141,506.496735 273.288391,491.368805 
	C263.914856,499.774414 260.841064,510.040375 258.513000,520.697388 
	C253.509567,516.598633 248.443512,499.288208 246.690674,480.399506 
	C233.716110,492.438446 225.796448,507.796356 217.787720,523.940735 
	C208.304260,501.564545 205.105713,478.791077 204.908691,455.274536 
	C191.264252,458.948914 179.840256,466.155426 169.152328,476.259033 
	C168.144333,464.971893 172.014771,455.286530 174.708038,444.652374 
	C159.957428,452.107483 148.502701,461.978760 141.644043,477.975250 
	C126.949005,448.006989 128.230896,418.841248 140.127151,387.842468 
	C133.210052,391.989166 126.801300,394.834045 121.671135,399.186127 
	C116.510078,403.564453 112.620934,409.442078 108.004860,414.861847 
	C108.004860,406.792664 107.342369,398.573914 108.150475,390.502380 
	C109.585770,376.166321 113.097923,362.200409 120.838776,349.848633 
	C125.712257,342.072296 131.321991,334.707489 137.092728,327.554382 
	C147.013275,315.257385 147.754974,302.629211 139.075668,288.857544 
	C140.400711,289.106903 141.163330,289.205658 141.900101,289.401520 
	C142.644089,289.599365 143.362488,289.893433 145.131714,290.504272 
	C137.058334,280.219604 132.581879,269.493561 131.123978,257.400757 
	C141.133698,267.156067 151.468338,276.004700 164.606110,278.856628 
	C159.194794,268.794403 152.549637,258.805756 148.314117,247.882797 
	C144.240372,237.377060 142.316559,225.973618 140.075958,214.838272 
	C137.598526,202.525894 138.497986,190.062668 141.132568,177.904388 
	C143.659973,166.240677 147.984146,155.045135 154.981384,145.268784 
	C164.257217,132.308838 175.549683,121.532455 191.717270,117.928215 
	C200.904358,115.880150 210.274094,115.911522 219.673462,120.320023 
	C220.719955,120.762474 221.258560,120.879906 222.714920,121.197433 
	C221.587357,120.158592 221.165619,119.770042 220.743896,119.381500 
M259.793213,303.756348 
	C259.793213,303.756348 260.098022,304.102234 259.780579,304.762390 
	C248.519958,310.190918 236.892288,312.350433 224.521149,309.129211 
	C211.731995,305.799164 201.063171,299.296387 192.952652,288.771240 
	C190.939713,286.158997 189.070145,286.066895 187.994415,289.383575 
	C186.385132,294.345306 185.065262,299.400909 183.414719,305.138123 
	C174.166183,306.978516 163.512466,308.748688 155.413071,317.815094 
	C164.253525,319.214325 172.112610,321.528320 177.297058,327.343414 
	C170.502838,329.887024 163.257095,332.014923 156.559418,335.270386 
	C149.760422,338.575043 143.758011,343.285400 139.413620,349.995026 
	C154.886520,344.920319 170.113373,344.059601 185.588531,350.559235 
	C170.339996,356.767700 158.463440,366.690552 148.880569,379.778381 
	C164.752640,375.720795 180.548492,372.342377 198.120255,374.595306 
	C174.375412,391.259888 152.972748,408.354492 152.234833,439.850952 
	C168.100281,428.823364 185.228195,421.684753 205.887894,422.043488 
	C201.448425,427.415680 197.491333,431.629333 194.224258,436.323273 
	C191.106445,440.802765 188.707520,445.782623 185.561203,451.298889 
	C196.533752,447.852753 206.081650,443.543182 215.999542,444.023010 
	C215.999542,454.824341 215.662445,465.080719 216.095123,475.304504 
	C216.520844,485.364502 217.727325,495.391479 218.712982,506.848145 
	C224.108261,496.651855 228.105087,487.505035 233.509628,479.283569 
	C240.436234,468.746735 250.646545,460.939087 255.772812,460.462036 
	C252.669159,473.623383 253.198914,486.616333 257.444580,500.043915 
	C262.618469,492.164551 267.067474,484.292969 275.337860,479.924927 
	C283.603210,492.657257 291.695557,505.123108 299.687103,517.433716 
	C306.965820,505.264282 314.294983,493.010559 322.487061,479.314056 
	C328.488586,486.421570 333.855713,492.777771 339.501984,499.464569 
	C340.479889,493.023041 342.277069,486.454254 342.247559,479.893677 
	C342.218140,473.360138 340.355377,466.834839 339.248810,460.012146 
	C358.661682,469.703491 368.638123,486.717346 376.424866,505.423950 
	C382.893341,485.307709 380.940308,464.718201 380.755066,443.096924 
	C385.519440,444.252594 390.404358,445.168060 395.109436,446.653290 
	C399.980804,448.190979 404.677673,450.281342 409.720459,452.234375 
	C406.163635,440.446686 398.065430,432.704956 388.503906,425.110046 
	C410.349487,423.698853 428.295685,431.887787 445.987549,441.959930 
	C443.170563,409.312286 421.553650,390.902435 395.505585,374.450745 
	C414.798981,372.804932 431.999420,373.712921 448.716095,379.978729 
	C438.084320,366.398590 426.198975,354.751709 409.084839,349.377991 
	C417.480865,347.655884 425.747314,345.694031 433.905914,346.070465 
	C442.119720,346.449493 450.226288,349.153015 458.274719,350.816315 
	C448.453949,337.270813 433.281189,332.462372 417.829712,328.519714 
	C424.120514,320.820526 432.704041,317.712402 443.713257,317.926514 
	C433.921478,309.756897 423.277466,307.123108 413.133301,305.464905 
	C411.774963,300.247650 410.702667,295.525818 409.292389,290.907166 
	C408.200714,287.331940 406.408447,287.044373 403.684174,289.893250 
	C389.342224,304.891357 372.054047,312.626556 351.063843,309.857117 
	C345.654510,309.143433 340.464874,306.764709 334.678741,304.999695 
	C344.443695,304.999695 353.548065,306.031433 362.308105,304.735657 
	C372.991821,303.155304 384.064880,301.012268 391.537750,290.894409 
	C391.572235,290.679932 391.606750,290.465454 391.641266,290.250977 
	C391.260498,290.271118 390.879700,290.291290 389.753815,290.583588 
	C387.012848,291.120239 384.271881,291.656891 381.530914,292.193542 
	C381.191284,291.801025 380.851624,291.408539 380.511993,291.016052 
	C396.976196,282.990723 400.245697,267.960876 401.526611,251.875351 
	C402.044983,251.849503 402.563354,251.823654 403.081726,251.797806 
	C404.986481,255.393875 406.891266,258.989960 408.764343,262.526184 
	C414.211792,256.590698 414.553772,248.488998 412.551941,241.778976 
	C410.299896,234.230240 413.641907,230.806366 417.954468,226.410858 
	C424.805054,219.428558 426.319366,203.217224 421.307617,195.695541 
	C420.970520,197.204391 420.558472,198.780228 420.271088,200.378479 
	C418.170990,212.057632 409.703918,218.737762 400.311951,223.786407 
	C381.328522,233.990936 365.799286,247.714050 353.125732,265.089966 
	C349.015533,270.725189 343.400208,275.300476 338.254059,280.126801 
	C335.544647,282.667816 332.332855,284.105408 328.445862,282.056061 
	C325.584778,280.547607 322.537476,279.392334 319.275299,277.947815 
	C317.895538,280.856018 316.554230,283.683258 314.954773,287.054565 
	C313.430237,285.631836 312.511536,284.742554 311.558960,283.891235 
	C308.164215,280.857361 304.701111,277.897247 301.374695,274.790588 
	C298.885315,272.465668 296.622589,273.261047 294.476257,275.093079 
	C290.357452,278.608795 286.331207,282.232880 281.776276,286.243774 
	C280.594086,283.483765 279.463745,280.844879 278.188232,277.867004 
	C275.884064,279.038116 273.248993,280.030121 271.007355,281.588196 
	C266.178619,284.944458 261.603241,284.494171 257.598450,280.653717 
	C253.055313,276.297058 248.626434,271.743134 244.705994,266.829651 
	C232.009338,250.916977 217.358505,237.237549 199.566925,227.255264 
	C186.732330,220.054169 175.815796,211.660645 174.792908,194.690155 
	C173.857254,195.933914 173.251007,196.389267 173.133286,196.947632 
	C170.327698,210.254715 171.721695,222.493469 182.627457,232.047302 
	C185.409348,234.484329 186.137589,236.673874 184.888123,240.464584 
	C182.248825,248.471832 182.447632,256.498291 187.539032,264.061554 
	C190.634201,260.890686 186.951721,254.929398 192.652924,253.004379 
	C194.842117,268.785248 200.776794,282.180908 214.997482,290.911072 
	C214.641876,291.304260 214.286255,291.697479 213.930634,292.090668 
	C211.336700,291.555481 208.742767,291.020294 206.148834,290.485107 
	C209.493195,294.178955 212.784882,297.904480 216.915649,299.828094 
	C230.564514,306.183868 244.866547,307.514221 259.793213,303.756348 
M432.510864,277.021942 
	C432.381195,277.212646 432.251526,277.403381 432.121826,277.594086 
	C432.413635,277.562469 432.705444,277.530823 432.510864,277.021942 
z" data-index="8" style="opacity: 1;"></path>
<path fill="#FAFAFA" opacity="1.000000" stroke="none" d="
M508.457825,283.571594 
	C507.311310,278.329773 506.164795,273.087921 504.869812,267.521484 
	C504.721344,267.196838 504.709686,267.293091 504.709686,267.293091 
	C506.752625,268.092255 508.795563,268.891449 510.888916,269.710358 
	C512.655212,266.639587 514.912415,262.715424 517.717773,257.838318 
	C520.952454,262.462555 523.558472,266.187988 526.293762,270.098328 
	C527.603638,268.979370 528.899658,267.872192 530.195679,266.764984 
	C530.563721,266.909180 530.931702,267.053375 531.299683,267.197571 
	C530.300598,272.692810 529.301514,278.188049 528.200500,284.244141 
	C531.302185,282.236694 534.119690,280.413177 537.292480,278.359680 
	C540.419556,285.474945 544.556702,280.616577 549.476868,279.573761 
	C547.902283,283.579681 546.526367,287.080200 545.077454,290.766449 
	C546.060913,290.981934 547.094177,291.208344 549.650757,291.768494 
	C543.445496,297.074890 537.969971,301.757202 531.514954,307.277130 
	C534.150146,308.580475 535.178101,309.088867 536.206055,309.597290 
	C536.048523,309.905945 535.890930,310.214600 535.733337,310.523285 
	C530.627869,310.954529 525.522339,311.385773 520.914368,311.774994 
	C520.075806,316.167938 519.349487,319.972961 518.623169,323.778015 
	C518.065002,323.695801 517.506775,323.613617 516.948608,323.531403 
	C516.948608,319.476868 516.948608,315.422302 516.948608,310.817627 
	C511.241730,311.082977 505.958221,311.328674 500.674713,311.574341 
	C500.536011,311.148193 500.397278,310.722015 500.258575,310.295868 
	C501.243134,309.638885 502.227722,308.981903 503.831909,307.911469 
	C498.008331,302.889832 492.300049,297.967621 485.954590,292.495941 
	C487.543457,292.051788 488.332886,291.831085 489.466461,291.514191 
	C488.114288,287.725128 486.734375,283.858276 485.063599,279.176361 
	C489.050293,280.512726 492.062683,281.522522 495.342468,282.621918 
	C496.131622,281.115021 496.797760,279.842987 497.802612,277.924164 
	C500.830109,280.124847 503.835052,282.309174 507.246613,284.982788 
	C508.043274,285.534668 508.433258,285.597229 508.823303,285.659821 
	C508.701477,284.963745 508.579651,284.267670 508.457825,283.571594 
z" data-index="9"></path>
<path fill="#F7F7F7" opacity="1.000000" stroke="none" d="
M69.073433,308.104126 
	C71.193985,306.910065 73.046341,306.003632 75.170174,304.964325 
	C73.726974,301.493134 71.931976,297.627472 67.604271,297.891388 
	C65.851357,297.998322 64.310020,301.574310 62.185501,304.165588 
	C58.762596,303.207245 56.511467,300.158722 56.161968,295.619141 
	C55.794453,290.845428 56.874268,286.634796 61.582829,284.309875 
	C66.064941,282.096771 69.605049,283.965240 72.523125,287.341644 
	C74.744308,289.911713 76.706245,292.705811 79.454117,295.346222 
	C78.567101,291.808319 77.930641,288.184052 76.746529,284.748566 
	C73.056488,274.042450 75.819519,264.951355 83.091347,256.803070 
	C90.783073,261.383728 94.789383,272.794647 92.278557,283.192413 
	C90.807709,289.283386 88.973167,295.285889 87.433105,301.361359 
	C87.077324,302.764893 87.256996,304.304169 87.190277,305.780975 
	C87.668221,305.853424 88.146172,305.925903 88.624123,305.998383 
	C89.682289,302.357971 90.182259,298.415741 91.944870,295.156250 
	C93.987236,291.379425 96.690399,287.676331 99.933243,284.910278 
	C103.319511,282.021851 107.909676,283.871033 110.860260,288.338379 
	C113.826180,292.828949 113.239258,298.641785 109.447525,301.325012 
	C108.392166,302.071838 107.097046,302.479889 106.652748,302.691132 
	C104.565865,300.734955 102.099388,297.463745 101.288940,297.832489 
	C98.106354,299.280426 95.445541,301.875214 92.095474,304.420593 
	C95.722809,306.169189 98.052650,307.292328 100.382484,308.415436 
	C100.275253,308.883698 100.168022,309.351929 100.060799,309.820160 
	C95.771088,309.820160 91.481384,309.820160 85.957321,309.820160 
	C87.327881,312.298218 87.903305,313.968109 89.003586,315.148987 
	C90.079247,316.303497 91.690277,316.959229 93.085480,318.478363 
	C86.229195,317.360199 87.727196,324.258972 84.701431,326.416931 
	C80.360199,325.887177 82.539642,317.636993 75.447548,318.662567 
	C76.611961,317.591858 77.928192,316.641785 78.900391,315.418365 
	C79.990921,314.046021 80.770370,312.426514 82.192825,310.075439 
	C77.424957,310.075439 73.948143,310.152588 70.481445,309.999878 
	C69.900230,309.974274 69.362869,308.952972 69.073433,308.104126 
z" data-index="10"></path>
<path fill="#FAFAFA" opacity="1.000000" stroke="none" d="
M504.682068,267.168396 
	C504.642822,267.139954 504.878632,267.160553 504.878632,267.160553 
	C504.878632,267.160553 504.656036,267.173096 504.682861,267.233093 
	C504.709686,267.293091 504.721344,267.196838 504.682068,267.168396 
z" data-index="11"></path>
<path fill="#262525" opacity="1.000000" stroke="none" d="
M391.030914,291.027161 
	C384.064880,301.012268 372.991821,303.155304 362.308105,304.735657 
	C353.548065,306.031433 344.443695,304.999695 334.678741,304.999695 
	C340.464874,306.764709 345.654510,309.143433 351.063843,309.857117 
	C372.054047,312.626556 389.342224,304.891357 403.684174,289.893250 
	C406.408447,287.044373 408.200714,287.331940 409.292389,290.907166 
	C410.702667,295.525818 411.774963,300.247650 413.133301,305.464905 
	C423.277466,307.123108 433.921478,309.756897 443.713257,317.926514 
	C432.704041,317.712402 424.120514,320.820526 417.829712,328.519714 
	C433.281189,332.462372 448.453949,337.270813 458.274719,350.816315 
	C450.226288,349.153015 442.119720,346.449493 433.905914,346.070465 
	C425.747314,345.694031 417.480865,347.655884 409.084839,349.377991 
	C426.198975,354.751709 438.084320,366.398590 448.716095,379.978729 
	C431.999420,373.712921 414.798981,372.804932 395.505585,374.450745 
	C421.553650,390.902435 443.170563,409.312286 445.987549,441.959930 
	C428.295685,431.887787 410.349487,423.698853 388.503906,425.110046 
	C398.065430,432.704956 406.163635,440.446686 409.720459,452.234375 
	C404.677673,450.281342 399.980804,448.190979 395.109436,446.653290 
	C390.404358,445.168060 385.519440,444.252594 380.755066,443.096924 
	C380.940308,464.718201 382.893341,485.307709 376.424866,505.423950 
	C368.638123,486.717346 358.661682,469.703491 339.248810,460.012146 
	C340.355377,466.834839 342.218140,473.360138 342.247559,479.893677 
	C342.277069,486.454254 340.479889,493.023041 339.501984,499.464569 
	C333.855713,492.777771 328.488586,486.421570 322.487061,479.314056 
	C314.294983,493.010559 306.965820,505.264282 299.687103,517.433716 
	C291.695557,505.123108 283.603210,492.657257 275.337860,479.924927 
	C267.067474,484.292969 262.618469,492.164551 257.444580,500.043915 
	C253.198914,486.616333 252.669159,473.623383 255.772812,460.462036 
	C250.646545,460.939087 240.436234,468.746735 233.509628,479.283569 
	C228.105087,487.505035 224.108261,496.651855 218.712982,506.848145 
	C217.727325,495.391479 216.520844,485.364502 216.095123,475.304504 
	C215.662445,465.080719 215.999542,454.824341 215.999542,444.023010 
	C206.081650,443.543182 196.533752,447.852753 185.561203,451.298889 
	C188.707520,445.782623 191.106445,440.802765 194.224258,436.323273 
	C197.491333,431.629333 201.448425,427.415680 205.887894,422.043488 
	C185.228195,421.684753 168.100281,428.823364 152.234833,439.850952 
	C152.972748,408.354492 174.375412,391.259888 198.120255,374.595306 
	C180.548492,372.342377 164.752640,375.720795 148.880569,379.778381 
	C158.463440,366.690552 170.339996,356.767700 185.588531,350.559235 
	C170.113373,344.059601 154.886520,344.920319 139.413620,349.995026 
	C143.758011,343.285400 149.760422,338.575043 156.559418,335.270386 
	C163.257095,332.014923 170.502838,329.887024 177.297058,327.343414 
	C172.112610,321.528320 164.253525,319.214325 155.413071,317.815094 
	C163.512466,308.748688 174.166183,306.978516 183.414719,305.138123 
	C185.065262,299.400909 186.385132,294.345306 187.994415,289.383575 
	C189.070145,286.066895 190.939713,286.158997 192.952652,288.771240 
	C201.063171,299.296387 211.731995,305.799164 224.521149,309.129211 
	C236.892288,312.350433 248.519958,310.190918 260.185181,304.407715 
	C260.829498,303.844910 261.069214,303.636780 261.308899,303.428650 
	C260.708771,303.416992 260.108612,303.405365 259.508484,303.393738 
	C244.866547,307.514221 230.564514,306.183868 216.915649,299.828094 
	C212.784882,297.904480 209.493195,294.178955 206.148834,290.485107 
	C208.742767,291.020294 211.336700,291.555481 213.930634,292.090668 
	C214.286255,291.697479 214.641876,291.304260 214.997482,290.911072 
	C200.776794,282.180908 194.842117,268.785248 192.652924,253.004379 
	C186.951721,254.929398 190.634201,260.890686 187.539032,264.061554 
	C182.447632,256.498291 182.248825,248.471832 184.888123,240.464584 
	C186.137589,236.673874 185.409348,234.484329 182.627457,232.047302 
	C171.721695,222.493469 170.327698,210.254715 173.133286,196.947632 
	C173.251007,196.389267 173.857254,195.933914 174.792908,194.690155 
	C175.815796,211.660645 186.732330,220.054169 199.566925,227.255264 
	C217.358505,237.237549 232.009338,250.916977 244.705994,266.829651 
	C248.626434,271.743134 253.055313,276.297058 257.598450,280.653717 
	C261.603241,284.494171 266.178619,284.944458 271.007355,281.588196 
	C273.248993,280.030121 275.884064,279.038116 278.188232,277.867004 
	C279.463745,280.844879 280.594086,283.483765 281.776276,286.243774 
	C286.331207,282.232880 290.357452,278.608795 294.476257,275.093079 
	C296.622589,273.261047 298.885315,272.465668 301.374695,274.790588 
	C304.701111,277.897247 308.164215,280.857361 311.558960,283.891235 
	C312.511536,284.742554 313.430237,285.631836 314.954773,287.054565 
	C316.554230,283.683258 317.895538,280.856018 319.275299,277.947815 
	C322.537476,279.392334 325.584778,280.547607 328.445862,282.056061 
	C332.332855,284.105408 335.544647,282.667816 338.254059,280.126801 
	C343.400208,275.300476 349.015533,270.725189 353.125732,265.089966 
	C365.799286,247.714050 381.328522,233.990936 400.311951,223.786407 
	C409.703918,218.737762 418.170990,212.057632 420.271088,200.378479 
	C420.558472,198.780228 420.970520,197.204391 421.307617,195.695541 
	C426.319366,203.217224 424.805054,219.428558 417.954468,226.410858 
	C413.641907,230.806366 410.299896,234.230240 412.551941,241.778976 
	C414.553772,248.488998 414.211792,256.590698 408.764343,262.526184 
	C406.891266,258.989960 404.986481,255.393875 403.081726,251.797806 
	C402.563354,251.823654 402.044983,251.849503 401.526611,251.875351 
	C400.245697,267.960876 396.976196,282.990723 380.511993,291.016052 
	C380.851624,291.408539 381.191284,291.801025 381.530914,292.193542 
	C384.271881,291.656891 387.012848,291.120239 390.245117,290.637024 
	C390.736420,290.690491 391.030914,291.027161 391.030914,291.027161 
M376.281342,332.306641 
	C376.415833,332.419189 376.550293,332.531738 376.261841,333.153748 
	C370.814209,338.963409 364.958038,344.448273 360.018158,350.661621 
	C353.223541,359.207794 347.474426,368.478699 345.263794,379.930450 
	C345.298431,380.177063 345.333069,380.423645 345.367706,380.670258 
	C345.588684,380.458618 345.809692,380.247009 346.676056,379.787079 
	C353.129150,370.648010 358.917633,360.933136 366.207520,352.519043 
	C374.863434,342.528198 384.891663,333.735443 394.164337,324.265961 
	C398.730316,319.603119 399.433075,315.615234 397.115448,312.314362 
	C388.260803,315.466431 379.509521,318.693573 370.681274,321.694122 
	C361.161255,324.929749 351.251923,326.224792 341.352386,324.834564 
	C330.142609,323.260315 323.091492,314.999969 315.935394,307.145874 
	C311.064789,301.800171 305.967102,296.658264 300.889618,291.505371 
	C298.222626,288.798767 295.567841,290.052887 293.549744,292.292358 
	C288.231140,298.194275 282.839661,304.068237 277.998932,310.355042 
	C268.745392,322.372864 252.664078,328.418732 237.831696,324.275604 
	C227.613846,321.421417 217.639603,317.694763 207.558533,314.351807 
	C204.896011,313.468842 202.241089,312.562958 198.545425,311.318237 
	C199.004211,314.675049 198.584030,317.286682 199.690628,318.717499 
	C204.601715,325.067413 209.705215,331.309052 215.196671,337.160461 
	C224.229507,346.785370 233.950256,355.781647 242.704544,365.643433 
	C246.726959,370.174713 249.146194,376.129150 252.292419,381.438202 
	C252.731216,381.156403 253.169998,380.874603 253.608780,380.592804 
	C248.644257,360.276611 234.588638,345.864868 218.997574,330.966309 
	C227.314499,333.546387 241.660812,343.486847 250.011475,351.431763 
	C268.521576,369.042511 277.599976,391.398438 283.046021,415.724854 
	C285.402344,426.250183 287.915314,436.777008 291.148193,447.054352 
	C292.806915,452.327454 296.205811,457.053192 298.818298,462.026306 
	C299.407074,461.994232 299.995850,461.962158 300.584656,461.930084 
	C304.058685,452.969879 308.103699,444.182343 310.876984,435.010254 
	C315.371613,420.145325 318.111206,404.704773 323.245117,390.087982 
	C332.564636,363.554474 350.574310,344.251648 376.281342,332.306641 
M369.760284,272.040741 
	C367.390930,271.073914 365.021545,270.107086 362.633545,269.132660 
	C356.756439,274.617096 357.372894,278.706696 364.910034,281.208313 
	C367.879730,282.193939 371.383759,282.510864 374.474152,282.032257 
	C389.719910,279.671173 393.537720,262.194611 386.889008,251.353592 
	C385.676971,249.377304 384.295959,249.245071 382.743286,250.792389 
	C379.852814,253.672867 377.029877,256.621063 375.457306,258.231659 
	C376.203979,262.407990 377.381989,265.446045 377.100098,268.341980 
	C376.766907,271.764709 373.600311,272.240387 369.760284,272.040741 
M231.993073,270.525269 
	C228.827347,274.746368 224.399170,273.093475 221.381683,271.422028 
	C219.429184,270.340454 217.610367,265.430481 218.495636,263.510254 
	C220.810898,258.488190 219.036499,255.975632 215.116409,253.573776 
	C213.329514,252.478943 211.687469,251.147659 209.972733,249.918594 
	C203.111435,260.975922 204.582321,272.466064 213.517822,279.010254 
	C221.036301,284.516632 232.102509,283.213898 238.049759,275.855713 
	C236.259613,273.957489 234.406052,271.992004 231.993073,270.525269 
z" data-index="12" style="opacity: 1;"></path>
<path fill="#252525" opacity="1.000000" stroke="none" d="
M220.535629,119.545296 
	C221.165619,119.770042 221.587357,120.158592 222.714920,121.197433 
	C221.258560,120.879906 220.719955,120.762474 220.060547,120.357727 
	C220.068939,119.949966 220.198151,119.829529 220.535629,119.545296 
z" data-index="13"></path>
<path fill="#262525" opacity="1.000000" stroke="none" d="
M390.617676,290.500977 
	C390.879700,290.291290 391.260498,290.271118 391.641266,290.250977 
	C391.606750,290.465454 391.572235,290.679932 391.284332,290.960785 
	C391.030914,291.027161 390.736420,290.690491 390.617676,290.500977 
z" data-index="14"></path>
<path fill="#252525" opacity="1.000000" stroke="none" d="
M432.754059,277.260559 
	C432.705444,277.530823 432.413635,277.562469 432.121826,277.594116 
	C432.251526,277.403381 432.381195,277.212646 432.754059,277.260559 
z" data-index="15"></path>
<path fill="#252525" opacity="1.000000" stroke="none" d="
M508.170837,283.902130 
	C508.579651,284.267670 508.701477,284.963745 508.823303,285.659821 
	C508.433258,285.597229 508.043274,285.534668 507.508759,285.204712 
	C507.537476,284.702393 507.710663,284.467529 508.170837,283.902130 
z" data-index="16"></path>
<path fill="#FE9A00" opacity="1.000000" stroke="none" d="
M345.634125,379.584961 
	C347.474426,368.478699 353.223541,359.207794 360.018158,350.661621 
	C364.958038,344.448273 370.814209,338.963409 376.690735,332.716431 
	C377.282867,331.935516 377.446045,331.591919 377.609253,331.248322 
	C377.048859,331.471161 376.488434,331.694031 375.928040,331.916901 
	C350.574310,344.251648 332.564636,363.554474 323.245117,390.087982 
	C318.111206,404.704773 315.371613,420.145325 310.876984,435.010254 
	C308.103699,444.182343 304.058685,452.969879 300.584656,461.930084 
	C299.995850,461.962158 299.407074,461.994232 298.818298,462.026306 
	C296.205811,457.053192 292.806915,452.327454 291.148193,447.054352 
	C287.915314,436.777008 285.402344,426.250183 283.046021,415.724854 
	C277.599976,391.398438 268.521576,369.042511 250.011475,351.431763 
	C241.660812,343.486847 227.314499,333.546387 218.997574,330.966309 
	C234.588638,345.864868 248.644257,360.276611 253.608780,380.592804 
	C253.169998,380.874603 252.731216,381.156403 252.292419,381.438202 
	C249.146194,376.129150 246.726959,370.174713 242.704544,365.643433 
	C233.950256,355.781647 224.229507,346.785370 215.196671,337.160461 
	C209.705215,331.309052 204.601715,325.067413 199.690628,318.717499 
	C198.584030,317.286682 199.004211,314.675049 198.545425,311.318237 
	C202.241089,312.562958 204.896011,313.468842 207.558533,314.351807 
	C217.639603,317.694763 227.613846,321.421417 237.831696,324.275604 
	C252.664078,328.418732 268.745392,322.372864 277.998932,310.355042 
	C282.839661,304.068237 288.231140,298.194275 293.549744,292.292358 
	C295.567841,290.052887 298.222626,288.798767 300.889618,291.505371 
	C305.967102,296.658264 311.064789,301.800171 315.935394,307.145874 
	C323.091492,314.999969 330.142609,323.260315 341.352386,324.834564 
	C351.251923,326.224792 361.161255,324.929749 370.681274,321.694122 
	C379.509521,318.693573 388.260803,315.466431 397.115448,312.314362 
	C399.433075,315.615234 398.730316,319.603119 394.164337,324.265961 
	C384.891663,333.735443 374.863434,342.528198 366.207520,352.519043 
	C358.917633,360.933136 353.129150,370.648010 346.254150,379.798706 
	C345.832214,379.810364 345.634125,379.584961 345.634125,379.584961 
M321.005188,337.682129 
	C322.166870,338.193481 323.328552,338.704865 324.490265,339.216248 
	C324.949036,338.880096 325.407837,338.543945 325.866638,338.207794 
	C324.306030,335.620880 323.295685,332.220642 321.024506,330.684113 
	C318.907410,329.251892 315.449432,329.801788 312.581696,329.479156 
	C312.452606,330.059723 312.323517,330.640289 312.194427,331.220856 
	C314.916382,333.243774 317.638367,335.266693 321.005188,337.682129 
M272.956512,335.360229 
	C272.735382,336.411957 272.514252,337.463684 272.202911,338.944397 
	C278.738220,339.170715 280.779663,334.177429 283.942780,330.637299 
	C279.514587,330.072601 274.840851,328.564728 272.956512,335.360229 
z" data-index="17" style="opacity: 1;"></path>
<path fill="#FD9900" opacity="1.000000" stroke="none" d="
M370.176849,272.057526 
	C373.600311,272.240387 376.766907,271.764709 377.100098,268.341980 
	C377.381989,265.446045 376.203979,262.407990 375.457306,258.231659 
	C377.029877,256.621063 379.852814,253.672867 382.743286,250.792389 
	C384.295959,249.245071 385.676971,249.377304 386.889008,251.353592 
	C393.537720,262.194611 389.719910,279.671173 374.474152,282.032257 
	C371.383759,282.510864 367.879730,282.193939 364.910034,281.208313 
	C357.372894,278.706696 356.756439,274.617096 362.633545,269.132660 
	C365.021545,270.107086 367.390930,271.073914 370.176849,272.057526 
z" data-index="18" style="opacity: 1;"></path>
<path fill="#FD9900" opacity="1.000000" stroke="none" d="
M232.272766,270.275879 
	C234.406052,271.992004 236.259613,273.957489 238.049759,275.855713 
	C232.102509,283.213898 221.036301,284.516632 213.517822,279.010254 
	C204.582321,272.466064 203.111435,260.975922 209.972733,249.918594 
	C211.687469,251.147659 213.329514,252.478943 215.116409,253.573776 
	C219.036499,255.975632 220.810898,258.488190 218.495636,263.510254 
	C217.610367,265.430481 219.429184,270.340454 221.381683,271.422028 
	C224.399170,273.093475 228.827347,274.746368 232.272766,270.275879 
z" data-index="19"></path>
<path fill="#F5F5F5" opacity="1.000000" stroke="none" d="
M259.650848,303.575043 
	C260.108612,303.405365 260.708771,303.416992 261.308899,303.428650 
	C261.069214,303.636780 260.829498,303.844910 260.343903,304.077637 
	C260.098022,304.102234 259.793213,303.756348 259.650848,303.575043 
z" data-index="20"></path>
<path fill="#FE9A00" opacity="1.000000" stroke="none" d="
M345.931458,379.922852 
	C345.809692,380.247009 345.588684,380.458618 345.367706,380.670258 
	C345.333069,380.423645 345.298431,380.177063 345.448975,379.757690 
	C345.634125,379.584961 345.832214,379.810364 345.931458,379.922852 
z" data-index="21"></path>
<path fill="#110900" opacity="1.000000" stroke="none" d="
M320.682739,337.485870 
	C317.638367,335.266693 314.916382,333.243774 312.194427,331.220856 
	C312.323517,330.640289 312.452606,330.059723 312.581696,329.479156 
	C315.449432,329.801788 318.907410,329.251892 321.024506,330.684113 
	C323.295685,332.220642 324.306030,335.620880 325.866638,338.207794 
	C325.407837,338.543945 324.949036,338.880096 324.490265,339.216248 
	C323.328552,338.704865 322.166870,338.193481 320.682739,337.485870 
z" data-index="22"></path>
<path fill="#090500" opacity="1.000000" stroke="none" d="
M272.982178,334.971741 
	C274.840851,328.564728 279.514587,330.072601 283.942780,330.637299 
	C280.779663,334.177429 278.738220,339.170715 272.202911,338.944397 
	C272.514252,337.463684 272.735382,336.411957 272.982178,334.971741 
z" data-index="23"></path>
<path fill="#262525" opacity="1.000000" stroke="none" d="
M376.104675,332.111755 
	C376.488434,331.694031 377.048859,331.471161 377.609253,331.248322 
	C377.446045,331.591919 377.282867,331.935516 376.902222,332.461670 
	C376.550293,332.531738 376.415833,332.419189 376.104675,332.111755 
z" data-index="24"></path>
</svg>