<svg xmlns="http://www.w3.org/2000/svg" viewBox="0 0 5000 5000" xmlns:v="https://vecta.io/nano"><style><![CDATA[.B{fill:#b4b3bc}.C{fill:#fff}.D{fill:#fea101}.E{fill:#8c5319}.F{fill:#f6f6f6}.G{fill:#b61515}.H{fill:#c8b7b7}]]></style><path d="M5010 2410v2560c0 30-10 40-40 40H50c-30 0-40-10-40-40V50c0-30 10-40 40-40h4920c30 0 40 10 40 40v2360" fill="#00000000"/><path d="M3130 890c90-10 180-40 260-60l770-190 540-130h30c30-10 50-20 70 0 10 20-20 40-30 70l-380 650-410 700-280 480-280 460-30 80 170-20 220-30 60-30c50-60 120-80 200-90 130-30 270-20 410-50 110-30 230-40 340-30 80 10 100 40 110 120l10 160c0 40-10 70-50 90-20 20-20 20-10 40 70 90 70 190 30 280-20 70-100 90-160 100l-560 70c-70 20-150 20-210 90-50 50-130 50-200 60-80 10-170 40-250-10-50-30-90-30-130-30l-190 30-220 30c-30 0-50 10-70 40-80 130-170 260-240 400-30 60-60 50-100 50s-50-50-80-70l-230-310c-30-30-80-20-110 0l-70 10-240 30-200 30-370 50-210 30c-120 20-250 20-370 50l-190 20c-50 0-90 30-140 20-50 0-90-20-130-40-30-10-30-50-40-70-20-140-20-280 0-420 10-50 0-110 20-160 20-60 60-90 120-110 90-30 190-30 280-40l110-10c60 0 120 0 180 40h50l180-20 250-20c30 0 60-20 80-50 50-40 110-80 190-80-60-120-160-210-240-310l-320-410-220-280c-100-140-220-260-320-410l-80-110c-30-40-30-50 20-60 150-30 300-80 460-100l250-60 410-100 10 40a53440 53440 0 0 0-1010 260c-40 10-50 10-20 50l80 100c120 170 250 320 380 480l650 830 30 40 30 10 100-10c80-10 150 20 220 50h50l150-20h40l140-20 110-20 120-20h60c40 0 80-20 100-50l60-50 30-10 70-20h190l40 10 60 40c40-10 50-50 70-70l430-730 610-1030 280-470c10-20 30-30 20-50-20-20-40 0-50 0l-50 10-730 170-270 60-70 20h-20l-20 10h-30l-20 10-190 40c-30 10-60 20-90 10-20-10-30-20-20-40" class="F"/><path d="M2010 790h60c40-20 70 10 100 10-20-40-30-50-130-90l-10-20 10-10 100-50c60-10 110-30 180-30h30l80 20c60 0 110-30 160-30l80 10c80 10 150 30 200 80 0 30-20 30-40 40l-80 60 60-10h40l80 10h30l10 40-10 20-80 50h10c40-20 90-30 140-20 40 20 80 30 110 60l50 40a220 220 0 0 0 20 20h10l10 20 10 10 10 30c60 90 80 180 100 280 10 60 0 110-20 160-40 20-50 0-50-30l-10-140c0-60-30-120-70-170-20-10-30-30-50-20l20 40c10 30 20 60-30 70-30 10-10 40-10 60v20c0 30-10 50-30 60l-40 40c-20 40-60 60-100 80l-30 10-10 10-20 10-10 10-20 10-20 20-20 20-40 30c-20 0-30 20-50 30-30 0-40 20-60 40s-50 30-70 0l-20-20c-50 40-100 0-150 20-20 10-40 20-70 0-10-20-30-20-50 0-20 30-50 20-70 0l-70-50-30-20-30-30h-10l-20-20-10-10-20-10-10-10-40-20h-10l-30-20c-70-40-140-70-160-160-10-30 10-50-20-80l-30-10c-30-40 10-70 10-110-30 10-50 30-70 60l-20 30c-30 80-30 150-40 230l-20 10-20-10v-40l-10-60 10-60 30-120 50-90 20-40 20-20 10-30c40-50 100-70 150-100l40-10h20l100 20-20-30-20-10-20-10h-20l-10-10-10-30c20-30 40-40 70-30" fill="#fdfdfd"/><path d="M2040 700c50 20 100 40 140 90 10 0 20 10 10 20h-30c-20-20-50-10-90-20 20-40 0-50-40-50l-30-10c-10-50 0-50 40-30m390-70-80-20h-20l-190 30v-30h10l20-10c30-20 60-10 90-20 20-10 30 10 50-10h30l30 10c10 0 30-10 50 10l10 10 10 10-10 20m450 60c0-20-30-20-40-30l-160-50v-10c30-20 70-20 100 0l90 30c20 10 40 20 10 50v10"/><path d="m2870 690 10-10c10 10 40 0 40 30l-40 10-30 20-40 40-70 20c10-50 40-80 130-110m-1230 490-30 120h-20v-40c20-60 10-120 50-170 30-20 30-20 40 0l-40 90zm250-280c-50 30-100 50-140 100-20 10-20 0-20-10l20-40 10-10 10-10 110-60 20-10c20 20 10 30-10 40m790-300c-80-10-160 20-250 30v-10l90-40h10c20 10 30 0 50-10h80c20 0 20 10 20 30m190 300c10-30 40-50 80-60h40c20 0 40 0 60 20h10c10 20 0 20-20 30-50-10-100-10-150 10h-20m-730-290v30l-90 40-10 20c-20-10-40-20-40 20-20-30-10-50 20-70l120-40m820 180-10-10h-90v-20c20-20 30 0 60-10s60 10 90 10c10 0 30 10 20 20l-20 20c-20 10-30 0-50-10"/><path d="M3040 890c0-10 20-10 20-30 30-10 40 20 70 20-10 20 0 30 20 40v20l-110-50m-1130-20h-30c-20-20-30-40-10-60h10l40 20 30 10 20 10v10l-30 40h-10l-20-30"/><path d="m1730 980 10 20-10 30-20 20-20 40h-10c-10-30-20 10-40 0l30-50 10-10 20-30 20-20 10-10v10" class="B"/><path d="M1880 820v-20l100-40c20 0 30 10 30 30l-60 20-40 20-30-10m980-70v10l-10 20h-40c0-10-20-20 0-20l40-20h10v10m190 110-70-10v-20l20-10c10 20 50-10 50 40"/><path d="M1980 760c-20 40-60 30-100 40 20-30 60-20 100-40" class="B"/><path d="M2520 580c-20 30-50 30-90 40v-20l90-20"/><path d="M3000 820h-10l-20 20-10-10v-40l40 10v20zm-140-70v-10l60 10c-20 30-40 0-60 0" class="B"/><path d="M2580 570c-10 30-30 20-50 10l50-10m-270 0c0 30-20 20-40 10 10-20 20-10 40-10zm60 10c-10 0-20 20-30-10l30 10"/><path d="M1700 1000c0 10 0 20-20 30 0-10 0-20 20-30" class="B"/><path d="M2170 600c0 10 0 20-20 10l20-10"/><path d="M1730 980v-10l20-20-20 30m-10 0c0 10 0 20-20 20l20-20" class="B"/><path d="M3240 3040c200-10 400-40 590-70l50-20c50-70 120-90 190-100 60-10 130-30 190-20 150 20 280-60 420-60 60-10 120-10 150 40 30 60 20 120 0 190-20 30-60 40-90 50-30 0-50 10-60 40 0 30 0 40 40 50 70 10 100 50 100 120 0 90-30 140-100 150l-650 90c-60 10-100 20-140 70l-90 50-240 20c-20 0-50 0-60-20-30-40-70-40-100-30l-1020 140-460 50c-80 0-170 30-250 40l-400 50-750 110-210 20c-90 0-120-30-120-110 0-150 10-290 30-440 0-50 30-80 80-90 130-30 270-50 400-50 30 0 50 0 70 20 30 30 60 40 110 30l450-50a230 230 0 0 0 140-70c100-90 380-110 490-40l50 10 780-110c30 0 40-10 50-30 20-40 60-60 100-70l110-20c40 0 80 10 110 40l40 20M2110 1580l40 30 20 20c40 20 70 60 90 90 20 40 40 50 70 20 10-10 30-30 50 0 20 20 30 10 50-10 40-40 60-40 110 10 10 10 10 30 30 10 10-30 20-30 50-10 10 10 20 20 40 10 30-20 50-60 70-90l50-50a550 550 0 0 0 60-50l20-10 30-20 30-20 30-20 100-70 40-40 30-50 20 10c20 40 10 70-10 90-40 50-60 90-50 140 0 20 10 60-40 50-20-10-20-10-20 30v20l-10 20c-10 50-40 80-70 100-10 10-30 20-10 30 20 20 10 30 0 40l-30 20-50 10h-70l-60 10c-10 0-10 0 0 0l10 10h80a180 180 0 0 0 100-40l50-20c30-10 50-40 90-50h20l30 40c10 40 40 60 80 60l30 10 30 10c20 10 40 20 40 40 0 30-30 20-40 20l-80 30 100 30c30 20 80 40 80 70-10 40-60 20-90 20-40 10-70 0-110 20l70 50 40 40c10 10 20 20 10 40l-40 10-130-10-40 10 60 50c90 60 150 140 190 240v40h-40l-60-20c-60-30-110-40-180-30l70 80c0 10 20 30 10 40l-40 10-90-20c-30-10-40 0-40 40l10 140c0 20 0 50-20 70l-30 10-40-50-130-130v160l-10 30-30-10c-60-50-60-50-100 10l-40 70c-30 40-50 40-80 0l-70-100c-20-30-30-30-50 0l-10 20c-20 10-30 40-50 30s-10-40-10-60c-10-40 10-90 10-140-40 20-60 40-70 60-40 40-70 80-90 130l-30 40c-30 0-20-30-30-50v-210c0-50-10-50-60-40l-60 20-40-10v-40l70-90c-80 0-150 30-220 60-20 10-40 30-60 10s-10-40 0-60a580 580 0 0 1 210-260l30-20c-60-20-120 0-180 10-20 0-40 10-50-10s10-30 20-50l110-90c-50-20-80-20-120-10h-80v-20c40-70 110-80 180-100-20-20-50-20-80-30-20 0-40 0-50-20 0-30 20-40 40-50l80-20 20-10c40-20 30-70 70-90h20l80 40c70 50 150 70 230 60-70-10-140-20-210-50v-30l20-10h10l-10-10c-50-40-90-90-110-150l-10-30c-50 0-50-30-50-60 10-50 0-80-30-110-20-20-40-50-40-90 0-20-10-40 30-40 10 60 60 90 100 120l50 30 30 20 50 30 60 40"/><path d="m2040 1840-30-10v30l-20 10c-30 0-50-30-80-40l-20-10c-30 30-20 80-60 100h-20c-50 10-90 30-130 70l120 20c10 10 40 10 40 30s-30 20-40 20c-60 10-120 30-170 80v10h180l40 10c0 20-20 30-30 40l-120 110 170-20c30 0 70-20 90 10 10 30-40 30-60 50-110 70-200 200-210 300 20 10 30-10 40-10 70-40 150-60 220-80l40 10-20 30c-20 30-60 60-80 110 50 0 80-20 120-30 60-10 60 0 60 50 0 90-10 170 10 270 60-100 110-200 210-250 0 70-20 140-10 220l70-80c10-20 30-20 40 0l90 130c10 30 30 30 40 0l80-120c20-40 40-40 60-10l50 70c10-80-10-150-20-220 90 40 150 110 200 190l-40 50c-40-10-50-60-90-80 0 50 10 90-10 130l-60 10c-30-20-20-40-30-60-20-30-30-30-40-10l-70 90c-30 20-60 10-100 20l-70-90c-20-20-30-20-40 10l-40 100h-20c-40-40-40-90-40-130l-10-60c-60 60-80 130-120 210h-40c-20-10-20-40-30-60-30-80-50-170-40-260 0-50-10-60-70-30l-90 70c-20 10-30 20-50 10s-20-30-10-50l20-70c-50 20-70 70-110 90-60-30-80-80-120-130v-140c40-30 40 10 60 20 20-70 70-120 120-180-40 0-60 20-70 40-20 20-40 50-80 40-20-20 0-30 0-60l-90 90c-10 10-20 30-50 40l-20-10-10-10-10-90c-10-50 0-100 10-160 10-80 30-150 90-210l10-10-20 10-30 20-60 40h-50c-20-10-10-30-10-50 10-40 40-70 70-100l60-40 50-10c20 0 10-10 0-20-30-40-70-60-60-110l10-10c40 0 60 20 90 40-30-60-70-110-50-180l10-10c70 30 110 80 180 110-50-40-60-90-90-150l-10-50 10-70c0-80 10-160 40-240l20-30c10-30 40-50 70-70h30l-10 30c-10 20-30 40-20 80l30 10c60 10 20 60 30 90-20 0-20 10-20 30 0 40 20 80 50 110 30 20 40 50 30 80s-10 60 10 80c20 0 10-30 30-40 20 90 40 170 130 210l-10 30m1010-40-90 60-30-70c30-30 60-50 70-100l10-20v-20c10-20 0-40 30-50 10 0 10 30 20 10 10-10 20-30 10-40-20-60 10-100 40-140 20-20 40-50 30-90l-20-30v-30c-20-30-20-50 30-50 20 0 20-20 20-40l-40-60-10-20 30-10 60 50c40 60 70 120 70 200l10 110c0 20 0 30 30 30 20 30 10 50 0 70-20 50-50 110-90 160l-10 10 10-10c60-40 110-90 180-120 20 0 20 20 20 30-10 50-20 100-50 150l60-30h40v40c-10 30-30 40-50 60-30 20-10 30 0 30 90 20 130 80 170 160 10 10 20 30 0 50-50 0-80-50-130-60h-20l-10-10-10-10v10h10l20 10 20 30v10l70 140v10c0 20 0 40 20 50 0 40-20 60-40 80-50 0-50-30-70-60-30-60-80-100-150-110l-20 10c80 50 150 120 210 200-10 50-30 60-70 30l-50-40-10-10h-10l10 10c10 20 20 50 10 80l-20 10c-30-10-40-40-60-60-30-30-40-30-80-40 60 60 90 160 160 220-20 80-50 140-110 200l-10-10c-10-40-30-60-70-80l20 80v40h-50l-110-80c-50-20-60-10-60 40 0 40 10 80-10 130-10 20-30 20-60 20 20-70 0-150 0-220-10-50 0-60 50-50l130 20-90-90c-10-10-20-20-10-40h30c80 0 150 30 220 60l40 10v-30a509 509 0 0 0-240-280c-10 0-40-10-30-30 0-20 30-10 40-10l210 10c-40-60-100-90-160-130 70-50 150-20 230-30-60-80-140-80-220-100 50-40 100-50 160-50-10-40-40-40-60-50l-30-10c-80 20-100-40-120-100l-20-10" class="B"/><path d="M3280 2960c-30 10-40-20-60-30 10-60 50-100 70-140l630-1070 50-100c70-90 120-190 180-290l320-550 10-40-240 50-590 140-330 80-70 10h-10l-10-10-20-20-10-10c-10-40 20-50 40-50l230-60 70-10 30-10h20l900-220c40-10 90-10 130-30l30 10 10 20-220 390-1070 1810c-20 40-40 90-90 130m-1430 110-110 10-20-10-380-490-450-570-220-290c-30-30-70-60-90-100-10-20-20-40 10-60l20-10h20l30-10h10l30-10h20l20-10h30l50-20 530-120 170-40c60-10 70-10 80 60l-10 10-10 20c-50 30-110 30-160 40l-330 90h-40c-40 20-80 30-130 30l-20 10h-20l-30 10-60 20c-60 20-60 20-20 70l30 30 170 210 280 360 170 210 20 20 10 10 20 20 100 130c30 50 60 100 110 130l30 40 10 20 40 40 20 30 50 70 20 30v20" class="G"/><path d="m1830 3030-60-80-20-20-30-40-20-20-20-30v-30c50-30 80-90 140-120l-30 120v30c10 10 20 0 30-10l150-90c20-10 40-10 40 20a909 909 0 0 0 60 360l-50-10c-50-30-110-40-170-40l-10-20-10-20m1450-70 410-690 570-960 390-670h10l20 10a153920 153920 0 0 1-1330 2240c-10 30-30 60-70 70m700-1340c-70 150-160 290-240 440l-480 810-40 50-30-10c-10-30 20-40 30-60l50-50 110-210c-10-20 10-30 10-50 0-30-20-50-10-80l-20-90 10-10 60 50c40 40 50 20 70-20v-30l10-10 10-10 40-60c-10-20 0-30 10-40 100-200 230-370 330-560 20-30 30-60 70-70l10 10"/><path d="m2340 3810 120-10c50 30 70 80 110 120 30 30 40 40 60-10l90-140c20-20 50-10 80-10 20 30-10 40-20 70l-130 220-30 40c-30 50-50 50-90 0l-120-160c-30-30-60-60-70-90v-30" class="G"/><path d="M670 1720c40 20 50 60 80 90l900 1150 70 110h-10l-270-330a408550 408550 0 0 1-770-1020m2560 1130-40 50-210 10v-160c-10-40 10-40 40-30 60 20 110 50 150 90 10 0 20 20 30 10 20-10 0-30 0-40l-30-100c40 20 90 30 90 80 0 40-20 60-30 90M4630 610l-260 70-780 180-10-30 1010-230c20 0 30-10 40 10m-3040 800c0-70 0-70-70-60a182000 182000 0 0 1-710 150v-10l690-170 80-20h30l-10 50v50l-10 10m1130 2360c-20 70-70 130-110 190h-30l-110-160c80-20 160-20 250-30m-600-650c10-90 60-170 120-250l30 230-150 20"/><path d="M2330 3830c80 80 140 170 210 260 40 40 50 40 80-10l150-250c10-10 10 0 20 10l-180 300c-10 20-20 40-50 10-80-100-170-200-240-310l10-10m-30-730c0-50 20-90 40-130 0-20 20-30 30-10 30 30 70 60 80 120l-150 20M810 1480l10 20-50 20-30 10-20 10h-20l-20 10h-20l-20 10h-40c-30 20-20 30-10 50l80 110h-20l-110-130c-20-20-10-30 20-40l250-70m2670-600-230 60c-20 0-40 0-50 40h-10l-40-30v-20a6840 6840 0 0 1 330-50m-730 2160v-170c40 30 70 70 90 110-20 40-50 60-90 60zm-200 20c20-50 60-90 90-130 20 30 40 60 40 110l-130 20M4630 610l-30-10 60-20h50c10 20-10 30-20 50l-10 20-20-10-10-30h-20M3480 880v-20l10-10h20l70-20 10 20-20 10-20 10-70 10"/><path d="m2790 3840-20-10c0-30 20-40 30-70h30v20l-10 10-30 50m-450-10h-10c-20-20-10-20 10-20v20M3510 850h-20 20M1710 3080l10-10 10 10h-20"/><path d="M2830 3770v-10 10zm-10 20v-10 10m-390-2580c70 20 110-30 160-70l-20 90c-10 20-20 40 20 40 30 0 20 20 10 30-60 80-210 80-270 10-10-10-20-30 10-30 40-10 20-30 10-40-10-30-40-60-10-80 20-20 40 20 70 40l20 10m190 540c-10 0-30-40-50 10-10 10-20 0-30-10-60-60-70-50-120 10l-20 30-20-20c0-40-20-60-50-10-20 30-50 20-70-10l-80-110c30-20 50 10 70 30 20 30 50 40 70 0 20-30 40-20 50 0 20 30 50 40 80 0h30c30 30 60 20 80-10 20-10 30-10 50 10 30 40 40 40 70 0 20-20 30-30 60-30v20c-20 30-40 70-80 100l-40-10" class="B"/><path d="M3230 1010c90 0 180-30 260-50 250-60 490-130 750-180l10 20c0 20-20 30-30 30-170 40-330 90-500 120h-40l-20 10h-30l-10 10h-30l-10 10h-30l-20 10h-30l-20 10-40 10h-50l-30 10-90 30-30-10-10-10v-20m-1640 400h10l10 50-20 10-750 180c-40 0-50 20-50 60h-20c-70-70-70-70 20-100a920 920 0 0 1 100-20h20a4890 4890 0 0 1 160-40l500-130 10-10h10"/><path d="M3240 1040h30l50 60c60 120 80 250 40 390h-40c40-160 0-300-80-450M1940 900l20-40c10 10 10 0 20-10l20 10 10 10c30 10 50 30 60 60l-130-30zm-360 570 20-10 10 10c20 20 20 30 20 60l10 60-10 10c-30-10-20-30-40-50l-10-30v-50"/><path d="M1680 1090h10l-40 90c-10-30 10-60 30-90" class="C"/><path d="m2850 780 10-10c30 0 50-10 80 10h-90m-940 40c10-10 20-20 40-10v30h-30l-10-20" class="B"/><path d="m1630 1530-20-60h20v60" class="C"/><path d="M2740 1660v-20l40-30c0 20-20 30-40 50" class="B"/><path d="m1910 870 20 30-40 10 20-40"/><path d="M3090 1380c0 20-20 30-40 40 0-20 20-30 40-40" class="B"/><path d="M1790 1250c-10 10-30 20-40-10l40 10" class="C"/><path d="m2050 1540-40-20c20-10 30 0 40 20" class="B"/><path d="M2980 840v10c-10 10-20 20-30-10l10-20v10l20 10"/><path d="m2150 1610-30-20c10-10 20 0 30 20m710-710h20c0 20-10 20-20 20v-20zm260 410 20 20h-20v-20m-230 220-30 20c0-10 10-20 30-20" class="B"/><path d="M1610 1410h-10v-50l10 50"/><path d="m2950 1490-30 20c0-20 10-20 30-20zm-30 20-30 20c0-20 10-20 30-20" class="B"/><path d="M2330 610h20"/><path d="M1710 1050c0-10 0-20 20-20 0 10 0 20-20 20" class="C"/><path d="m2110 1580-20-10c10-10 10-10 20 10zm-30-20-20-10c10-10 10-10 20 10zm-80-50-20-10c10-10 10-10 20 10" class="B"/><path d="M1680 1200c10 10 10 20-10 20l10-20" class="C"/><path d="M1980 850c0 10 0 20-20 10l10-10h10" class="B"/><path d="M3190 980h10l10 10c-10 10-10 0-20-10m30 30h-10l10-10v10m0-10h-20 20m10 10v10h-10v-10h10"/><path d="M2010 870h-10 10" class="B"/><path d="m2980 840-20-10h30l-10 10"/><path d="m2540 3330-30 220c-10 60-80 90-120 70-20-10-20-20-20-30l20-270c0-40 10-50 50-60l400-50c70-10 80 10 80 70l-20 240c0 20-10 30-40 40h-10c-90 20-90 20-80-80l10-160c0-10 10-30-10-40-20 0-40 20-40 40l-20 180c-10 80-20 90-100 90-30 0-50 0-40-40l10-210-10-30c-20 0-20 10-30 20M500 3700a2830 2830 0 0 0-10 120c0 50-30 70-70 70h-40c-50 20-60-10-50-60v-30l10-80v-40l10-80v-100c20-40 120-70 160-50l10 30 60 150 10-150c0-40 20-60 60-60 100-10 100-20 90 80l-20 290c0 50-20 70-70 70-90 10-90 10-120-80a5370 5370 0 0 0-30-80m3440-450 20-200c10-50 40-80 90-90l210-20c60 0 70 10 70 70l-10 230c0 20 0 50 30 60 30 20 10 50-20 60l-240 40c-160 10-160 10-150-150m-2230 190-10 70v90c0 20 0 30 20 30l20-10v-30c-10-20-40-40-20-70 60-40 120-30 190-40l10 20v20c-10 150-20 160-170 190l-130 20c-60 10-90-20-80-80l20-280c0-40 20-70 60-80 90-20 170-30 260-30 40 0 50 30 60 60 0 30 0 60-40 70l-80 10c-30 0-40 0-40-30-10-10 0-30-30-30-20 10-40 10-40 50v50zm1960 10c-120 10-140-10-120-130l10-140c10-40 30-70 70-80l240-30c30 0 40 10 30 40l-20 320c0 40-30 70-70 80l-160 30c-20 0-40 10-50-20s20-40 40-40l30-10 10-10h20l-30-10m-200 20c-150 20-120 30-110-90l10-140c0-20 10-40-10-40-20-10-30 10-30 30l-20 170v10c-10 90-40 110-130 110-20-10-20-10-20-30l20-300c0-20 20-20 30-30l250-30c40-10 50 20 60 40 0 100-10 190-30 280l-20 20zm-2350 210c-20 100-30 120-120 130l-160 20c-50 0-70-20-70-60l20-230c10-40 30-60 70-60l210-30c40 0 60 20 60 60l-10 170m970-370 150-20c60-10 90 10 80 70l-20 230c0 30-20 50-50 60l-190 20c-70 10-90-10-90-80v-40c0-110 20-130 130-150 10 0 30 0 30-20s-20 0-30-10c-20 0-40 10-50-10-10-30 10-40 40-50m2620-60c10 50-10 70-60 70l-160 20c-60 0-80-20-80-70l20-290c10-40 40-70 80-80l190-30c20 0 40 0 40 20s-10 40-30 40l-30 10c-90 20-90 20-100 120l-20 170c0 20 10 30 40 30l110-10m-3410 170c30 0 40 20 50 40 20 40 30 30 50 0l60-60h40c10 10 0 20-10 30l-70 100c-10 30-20 40 0 70l50 100c10 30 0 50-30 50-50 10-100 20-120-40-10-30-30-10-40 0l-50 60c-20 10-40 20-50 10-10-20 0-30 10-40 60-70 90-150 30-240-40-60-30-70 40-80h40m1780-250c20 0 30 0 30 30l-20 290c0 40-90 70-130 50l-10-40 20-270c0-30 20-40 50-50l20-10h40" class="C"/><path d="M3020 3170c-20-10-40-10-40-30 0-30 20-40 40-40l60-10c20 0 40 0 40 20 10 30-10 40-40 50l-30 10h-30" fill="#e2e2e2"/><path d="M1720 3520c0 20 0 40 30 50 20 10 20 40 10 50a55 55 0 0 1-50 30c-30 0-20-30-20-40l10-100 20 10m-1370-20v100-100zm3320-40c20-20 40-20 60-10-10 20-30 20-60 20v-10m-1960-20v-50 50M340 3680v40-40m2710-520h30v10l-30 10v-20m0 0v20h-30v-10l30-10M330 3800v30-30zm170-100v-20l10 20h-10zm-10 120v-20 20"/><g class="D"><path d="M2310 2250v-50l100-100c40-40 80-40 120-10l80 60c20 30 40 10 40-10v-130c30-20 50-10 80-10h30l10-10h50c30 0 50-10 60 30l-10 10-10 10-10 10-20 20-10 10a110 110 0 0 1-20 10c-50 20-70 50-100 90l-10 10c-60 60-80 140-100 220l-60 260c-10 20-10 40-40 40-20 0-20-20-30-40-30-90-40-180-80-260-10-50-20-90-50-130l-20-30"/><path d="m2320 2200-10 30h-10l-10-10c-10-30-40-40-60-70l-30-30c-30-20-50-50-90-60l-50-10-70-60v-10c60-10 120 20 170 20 70 10 130 10 190-20l50 20v20c-30 20-60 30-80 60-30 20-30 50-20 80l20 40m10 80c30 10 30 40 40 60l100 320c0 20 10 40 30 40s10-30 20-40c30-110 40-220 80-320 20-50 30-110 90-150-80 120-100 260-130 390l-40 130c-10 10-10 30-30 30l-20-30-60-170c-20-90-40-170-80-260m-270-610c-10 50 0 70 50 60 20 0 40-10 50 20 0 30-30 40-50 40-50 0-100-30-110-80-10-40-10-70 30-90 10 20 30 30 30 50m850-60c20-20 30 0 40 20 30 70-40 150-120 140-10 0-40 0-40-30 0-20 20-30 50-30s70 20 60-40c-10-30-10-40 10-60m-160 620 40-80 10-20 10-20 40-40 30-40 10-30 40-20c20-20 40-30 60-20 10 10 10 30-10 40l-100 100-100 140c-10 10-20 0-30-10"/></g><path d="m1990 1880 20-20c70 20 150 40 220 40l20 10-20 20c-40 10-80 0-120-10-40 0-80-20-120-40" class="B"/><path d="M2360 1980c-70 60-150 40-240 30-40-10-80-30-130-30l-20 10v-10l-10-10v-20h10l200 50c70 0 130 0 190-50h10c10 10 10 20-10 30m390 30h-140c-30-20-40-40-40-80h10c50 40 110 60 180 60v10l-10 10m-340-130c50-70 80-70 130-20l30 40v10c-20 10-30 0-40-10-30-40-70-40-110-20h-10m590 80-60 20a100 100 0 0 0-50 50h-20c10-30-20-30-40-40l150-60h10l10 20v10m-860 210-30-30v-30c20 0 30 0 40 20 10 30 40 40 50 80h-30l-20-20-10-20" class="D"/><path d="M2130 2110c-20 0-20 10-20 30-30-10-50-40-70-60l20-40 50 10 10 10-10 20 10 10 10 20" class="E"/><path d="M2930 1790c0 40 30 10 50 20 0 20-30 30-20 50-10 20-20 20-30 20s-20-10-10-20l10-30c-70-10-20-30 0-40m-110 120-90 10c-10-40 20-20 40-30l80-10c30 40-20 20-30 30" class="B"/><path d="m2170 2220 30-10c20 30 40 60 40 100-40-20-60-60-70-90" class="E"/><path d="m2860 2070-40 50-20 20c-10 0-20 0-30-20s10-30 30-40l10-10h10l20-20 20 20"/><path d="M2060 2040c10 10 10 30-20 30l-40-30c-10-20-20-30-10-50 30 10 50 20 70 50" class="D"/><path d="M2880 2100c20-40 60-70 100-100-20 40-60 70-100 100" class="E"/><path d="m2800 2080-30 40-70 60c10-50 50-80 100-100" class="D"/><path d="M2820 1920c0-30 40-10 30-40l40-10 20 10c-20 30-50 30-90 40zm-760-240-30-60c20 0 30 10 50 30 10 0 20 10 10 20l-30 10" class="B"/><path d="M2110 2070v-20c40 10 60 40 90 70l-30-10-60-40" class="D"/><path d="M2770 1880c-10 30-40 10-50 30-10 10-30 10-30-10s20-10 30-20h50zm140-270-10 50h-30c-10-30 20-40 40-50" class="B"/><path d="m2750 2230 30 10-30 50h-20l20-60" class="E"/><path d="m2110 2070 50 40-10 20-20-20-10-10c-10-10-20 0-30-20l20-10"/><path d="M2230 2150c30 10 50 30 60 70-20-20-50-30-60-70" class="D"/><path d="M3040 1590c-20 20 0 40-20 60v-50c0-20 10-30 20-10" class="B"/><path d="m1990 1990 10 40c-20 0-30-20-30-40l10-10 10 10" class="E"/><path d="m2540 1750 30 10v20c-20 0-20-10-30-30" class="B"/><path d="m2040 1840 10-20c10 0 20 0 20 20h-30"/><path d="m2620 1750 40 10c-10 10-30 0-40-10" class="B"/><path d="M2010 1850c-10 0-20 0-20-20h20v20"/><path d="m2370 1950 10-30h10c10 20 0 30-20 30zm-60 300c20 0 20 10 20 30l-20-30" class="D"/><path d="M2730 2290h20l-10 10-10-10"/><path d="M3010 1670v20-20" class="B"/><path d="m2400 1900 10-20h10c10 10 0 20-10 20h-10" class="D"/><path d="M1810 1920h20-20m1380-10h20-20m-270-20-20-20 20-20v40m-1030-60c0-20 10-20 20-10l-20 10m1160-20c0-20 10-20 20 0h-20m-1420 340-10 10c-10-10 0-10 10-20v10" class="B"/><path d="m2390 1920 10-20c10 10 0 20-10 20" class="D"/><path d="M2980 1930h20" class="E"/><path d="M2980 1930h20v10h-10l-10-10m-680 300h10v10l-10-10" class="D"/><path d="M2140 2180h10" class="E"/><path d="M2760 2000v-10h10v10h-10m230-60h10v10l-10-10m-410-20 10 10h-10l-10-10h10m0 0h-10v-10l10 10" class="D"/><path d="m1420 2520-180-220-260-310-10-30-10-20c30-20 40 0 50 10l80 90 280 350 40 30 20 10 10 90h-20m30 30-10-10 20-10 100-110c20-10 30-30 60-30l-20 80 10 20-10 20-10 30c-20 50-10 100-10 150l-10 10a2870 2870 0 0 1-120-150m50-500 20-10 10 10c-40 60-80 130-90 210h-30c-20-30 0-70 20-100l10-20 10-10-10 10h-10l-10 20a40 40 0 0 1-30 20h-30l-10-10-10-10-10-60v-20l20-40v-20l10-10 10-20 10-20 40-10h20v10l-70 110 10 40c10 10 20-10 30-10a1210 1210 0 0 1 90-60"/><path d="M1490 2400c-40-30-20-60 0-90 30-70 90-110 160-120l30 10c10 10 0 20-10 30l-50 30c-60 30-90 90-130 140zm100 140v-30l10-20v-20c40 0 50-30 70-50 20-30 40-40 70-50l30 10-20 20c-40 60-90 110-110 180l-20 20-20-20-10-40zm30-660-10-10v-110l160 70c20 20 0 30-20 40-40 20-80 10-130 10" class="C"/><path d="M1630 1600l10-10c30 60 50 120 110 170-80-20-140-70-200-120l-10-20 20-10c20-10 30 0 40 20a350 350 0 0 1 20 20l10 10-10-10v-10l10-40m-100 40c10 70 30 140 80 190-40 0-70-20-110-40l-20-40 20-20 10 10-10-10v-120c10-20 20-20 30-20l10 10-10 40m-50 150c10 40 40 60 60 90v20h-30l-20-10-20-20c-20-20-40-40-40-70s0-60 30-60c20 0 20 10 20 30v20m-80 470h30v170h-20c-20-30-10-70-20-110l10-60"/><path d="M1630 2080c-20 10-30 30-60 30 20-40 50-70 80-90 10 0 30-10 40 10 0 20-10 20-20 30l-40 20" class="C"/><path d="M1570 2700h10l100 110v20c-50-30-80-80-110-130m-80-810h40c10 40-30 20-40 40l-50 40v-50l50-30"/><path d="M1490 1940c0-30 30-20 40-50h10c20 10 40 10 40 30-10 20-30 10-50 10l-40 10"/><path d="m1520 1990-60 20c10-30 30-50 50-50s30 10 10 30" class="C"/><path d="M1480 1790h-10v-50h20l10 40-20 10m20 260c0 10 0 30-20 20l20-20m-80 470h20v20c-10 0-20 0-20-20m20 20v-10h20l-20 10m90-490c10-20 10-20 10 0h-10"/><path d="M3310 1100c-30 0-30-30-40-60l80-20c0-20 20-10 30-20h70l20-10h30l20-10h30l20-10h20l20-10h20l20-10 30-10h20l550-140c50-40 120-40 180-40 40-10 30 20 20 40l-80 150c-140 200-250 430-380 640l-20 20c-60 60-90 140-130 210-90 140-180 270-260 420-10 10-20 10-30-10v-10c-20-20-20-30-10-60l20-40 10-20c60 0 30-50 40-80l310-520 200-340 170-290-290 70-640 160h-50m200 1260-10 30c-20 0-20-10-30-20-60-60-110-130-190-170l-20-20c10-20 20-10 30-10 80 0 160 40 190 120 0 20 10 50 40 50v10l-10 10m-110 180c10 20-10 30-20 50-30 0-40-20-60-40l-100-170c-10-10-30-20-10-30 10-20 20 0 40 0 40 30 70 60 100 110 20 10 40 20 30 50-10 10 0 20 20 30" class="C"/><path d="M3330 1490h20v50l-10 60c20-30 50-50 100-30v10l-30 20-180 140-20-10c30-60 80-110 100-170l20-70zm90 360c20-30 50-50 60-90-50 0-80 30-140 50 40-60 70-110 80-170h20c20 20 10 40 0 60v20-10h10l10-10h30l20 20 10 20-10 30c0 40-20 70-50 90l-30 10-10-20"/><path d="M3310 1780c-40 40 0 40 30 50-20 30-50 20-70 20-40 0-90 20-100-20-10-30 50-40 80-60l30-20c10-10 20-30 40-10 10 10-10 20-10 40" class="C"/><path d="m3420 1850 10 10 50 10c60 20 140 100 140 150l-10 70c0 20-10 30-30 30-20-20-10-20 10-30 10-80-80-190-160-200-20 0-30 10-50-10 0-20 20-20 40-30"/><path d="m3590 2090-20 20-10 10c-30 0-10 20-10 40v60c-20 10-20-10-30-30l-50-110v-20l-20-10c0-20 10-20 20-30 50 10 80 40 120 70"/><path d="m3280 2040-20-30c10-20 20-10 40-10 30 10 60 30 80 60v10c-30 10-50-20-80-20l-20-10" class="C"/><path d="M3400 2530c-10 10-20 30-30 10l-10-30c20-20 10-30-10-50h30c20 20 10 50 20 70" class="B"/><path d="M3410 1940c30-10 60 0 80 20l-10 10c-20 0-50 0-70-30" class="C"/><path d="M3230 2850c-10-30 20-50 30-80l10 20c0 30-20 40-40 60m210-1210h-20l-10-30c0-20 0-30 20-30 20 10 20 20 20 40l-10 20m110 590c0 10 10 20 30 20l-20 20c-20-10-20-20-10-40m-120-210c-10 0-30-10-20-20h20v20m40 0c0 10 0 20-20 20l-10-10v-20l30 10m-100 340-10 10v-10h10m-150-630c0 10-10 20-10 0h10m210 290v-10h10v10h-10zm30 40 10 10-10-10m510-450 250-460c70-110 150-220 210-340 0-10 20-20 20-50l-200 40-10-20 240-60 20 10v30a133500 133500 0 0 1-510 860l-20-10m680-1000 10-10c20 10 0 20 0 40h-10v-30zM3550 870c0-10 0-20 20-10l-20 10m-320 140h-10v-10l10 10M970 1920v30c-70-60-120-140-180-220l10-10h20c60 60 120 130 150 200m-200-390c10-30 30-20 50-30v10l-50 20m30 180-10 20-20-20h30m-200-140c0-10 10-20 20-10l-20 10m270 20c0 10 0 20-20 10l20-10zm40-10c0 10 0 20-20 10l20-10zm160-30h-20 20m-430 10c0-10 0-20 20-10l-20 10zm40-10c0-10 10-20 20-10l-20 10zm40-10c0-10 0-20 20-10l-20 10m980 1330c10 0 20 0 20 20-10 0-20 0-20-20zm50 60c10 0 20 0 20 20-10 0-20 0-20-20zm80 100c10 0 20 0 20 20l-20-20M3700 940h-20 20zm-230 50h-20 20zm140-30-20 10c0-20 10-20 20-10zm-40 10-20 10c0-20 10-20 20-10zm-50 10-20 10c0-20 10-20 20-10zm130-30-20 10c0-10 10-20 20-10m-270 50-20 20c0-20 10-20 20-20"/><path d="M800 1720v-10l-20-30c-30-30 0-30 20-40a27100 27100 0 0 1 780-180l10 60c-10 20-40 20-60 30l-580 150c-50 10-50 10-10 50 140 170 280 350 430 510l30 50 10 120c-30 10-40-20-50-30-110-160-240-300-360-450l-30-20c-50-80-100-140-170-210" class="C"/><path d="m1630 1640-30-90 30 50v40" class="B"/><path d="M4100 3320c-10-90 0-180 10-270 10-30 30-30 50-30 30 0 20 20 20 40l-20 190c0 40 0 80-60 70m-400 0c0-40-10-90 10-130 0-20 10-40 30-40 30 0 20 30 20 40l-20 140c0 30 0 60-40 50-20-10 0-40 0-60M930 3560c10-30 20-40 40-40 20 10 10 30 10 40l-10 160c-10 20 0 40-40 40-30 0-10-30-10-50l10-150m1240 0c-10 30-30 40-40 30-30 0-20-20-20-40l10-60c0-20 10-30 30-30 30 0 20 20 20 40v60m-40-170c10-30 30-20 50-20-10 20-30 20-50 20"/><path d="M2320 2200c-10-20-30-30-30-50-10-30-20-60 20-70l60-10c20-10 30-20 20-50l10-10c40-30 90-20 140-10h10c20 20 10 50 40 60 20 10 30 20 50 0h20c10 40 20 70 0 110-20 20-30 20-50 10l-80-70c-40-40-80-40-110 10l-100 80" fill="#cc6e04"/><path d="M2660 2060h-10c-30 0-40-20-50-30l-10-20 20-10 50 10v50" class="D"/><path d="m2860 2070-20-10 10-20 10-10h30l-30 40"/><path d="m2850 2040-10 20-20 10c0-20 0-30 30-30m-90-40h10l-20 10 10-10m-150 0-10 10-10 10h-10l-30-10h-150c-10-20-30 0-40-30l10-30c10 0 20-10 20-30l10-20 20-20c50-40 60-40 110 10l30 20 10 10 10 10c10 20 10 50 30 70" class="D"/><path d="M2390 2020c30 10 40 20 10 40-20 20-50 40-80 20 10-30 30-50 70-60"/><path d="M2900 2010c0-20 0-30 30-30 0 10-10 30-30 30" class="D"/><path d="M2810 2140c-10-10-10-20 10-20l-10 20" class="E"/><path d="m2090 2080 30 20c-10 0-40 10-30-20" class="D"/><path d="M1600 2490v20-20" class="B"/><path d="M1350 2160c-20-20-10-40-10-60 20 10 10 30 10 60m90-10-10-10c0-10 0-20 20-20v10l-10 20zm-100-80 20-40c0 10 10 30-20 40m50-90c0-10 10-20 30-20 0 10-10 20-30 20m10 190h-10 10zm-40 0h-10 10zm70-30-10 10 10-10m20-10v-10 10m-90-110 10-10-10 10zm10-10 10-10-10 10zm170-410 30 10-20 10-10-10v-10m-30 90c-20-30-10-60 0-90v90m-70 260v-10 10zm0-10 10-10-10 10m2000-370c20 10 10 30 0 50v-50zm-90-60-10 30 10-30m-30 100v20-20m30-110v10-10m110 360 20 20c-20 0-40 10-50-20h30m-30-140h10l-20 20c-10-10 0-20 10-20m60-20c10 0 20 0 20 20-10 0-20 0-20-20zm20 40-10 30 10-30"/><path d="M3540 1210h10a120 120 0 0 1 50-10h10l10 10-10 20-30 10c-80 20-80 20-50 110l10 40h-30l-30-20-10-10v-40c20-10 0-20 0-30-10-70-10-80 70-80" class="H"/><path d="M3870 1420c0 80-20 90-100 60h-10v40c0 30 10 60-50 60-50 0-40-30-40-60 0-20 10-40-30-40 30-30 50-30 70 30v20c0 20 0 30 20 10l10-60 10-20h20c40 10 70 0 100-40" class="C"/><path d="M3880 1420c-20 0-20 20-20 30-10 20-30 30-60 30l-50-10v-10c50 0 80-50 110-80a170 170 0 0 1 20-20l20-10 20-10h20l10 20-70 60zm40-210h20v20c-10 20-30 20-50 20s-30-10-50 10c-20 10-30 20-50 10-30-40-10-80 20-110 10-10 20-10 20 10v20l10 10c20 0 50 20 80 10zm-220 310c-10-20 0-70-60-40h-10c-30 10-60 10-70-40v-10l20-20 10 10 60 30c60-10 70 10 50 70zm-60-390c20 0 20-20 30-30 20-20 30-50 60-30l-20 40v10l-10 10-10 20-10 10h-10l-10 10c-20-10-30-10-30-30l10-10" class="H"/><path d="M3940 1230v-20c20 0 20 10 20 20l-10 130-10-10-20-40v-20l20-60" class="F"/><path d="M3700 1120c0-20 0-40 30-50l10 10 10 10v20l10 50c-30 10-40-20-60-40" class="G"/><path d="m3540 1210-20 10c-40 0-50 20-50 60-20 0-10-20-10-30-10-10-20-30 0-40 10-20 30-10 40 0h40" class="C"/><path d="m3830 1170-20-10-10-10-20-20c50-20 60-20 50 40" class="F"/><path d="m3640 1130-10 10-30 40c-30-60-30-60 40-50" class="C"/><path d="m3780 1130 30 10c-10 20-20 30-40 20l-20-30 10-10 20 10" class="H"/><path d="M3560 1440c10 30 30 40 70 40-70 20-80 20-70-40" fill="#fdfdfd"/><path d="M3920 1210c-30 20-50 10-80-10 30-30 50 20 80 10" class="F"/><path d="M3510 1390h30l10 30c-20 0-30-10-40-30zm80-190-40 10c10-20 20-30 40-10" class="C"/><path d="M3470 1320v30-30" class="F"/><path d="m3580 1410-20 20-10-10 30-10zm30-210h-10v-20l10 20" class="C"/><path d="M3760 1120h-10v-20l10 20zm-20-40-10-10 10 10zm10 10c-10 10-10 0-10-10l10 10zm-280 270 10 10-10-10zm360-170v-10 10" class="F"/><path d="m2580 2010 20 10 50 40v20c-30 20-50 0-70-10s-40-20-20-50c0-10 10-20 20-10"/><path d="M2580 2010h-30 30" class="D"/><path d="M2600 2020h-10l10-10v10" fill="#cc6e04"/><path d="M3610 1200c10-10 10-20-10-20 20 0 0-40 30-40l40 20v90c0 40-10 50-50 30v-50l-10-20v-10m-90 160c-40-30-10-80-30-110l10-10c30 10 60-20 100-10h10v30l-10 10c-70 0-70 0-70 70v10l-10 10zm60 60h-30c20-10 0-20-10-30l-20-30c40-10 60 10 70 50l-10 10" class="G"/><path d="M3610 1210c10-10 20 0 20 10l-20 20-10-10 10-20" class="C"/><path d="M3590 1420c-10-30-40-40-60-60l-10-40c-10-70 20-80 90-60l10 10c0 20 10 20 20 20 20-10 20-20 20-30l-20-50c0-20 0-40 30-50l10-10 10-20 10-10c30-10 30 40 60 40 30 10 40 20 30 50-10 20-30 50 10 60l20-20c50-10 80-20 110 30l-10 70h-10l-20 20-10 10c-20 20-50 30-50 70l-20 10h-60v10l-10 50c0 20-10 40-40 20v-20c0-60 0-60-60-60-30 0-60 10-50-40" class="G"/><path d="M3700 1540c20 10 30 10 30-10l10-60c10 30 20 60 0 80-20 30-40 30-40-10" class="H"/><path d="M3920 1350v-60l10 10 10 50h-20zm-30 20 20-20c0 10 0 20-20 20zm-10 10 10-10-10 10zm40-90c-10-50-50-30-90-40 10-20 20-30 40-20 20 20 40 10 70 0 10 20 0 40-10 60h-10zm-120-20-20 20-10-30 20-60c0-20-10-30-30-40l50-10v10c-10 30-30 70-10 110" class="G"/><path d="M3820 1220v10-10" class="F"/><path d="M3920 1290h10v10l-10-10zm-300-20-10-10v-20l10-10c20 10 30 30 0 40" class="H"/></svg>